<svg width="79" height="5" viewBox="0 0 79 5" fill="none" xmlns="http://www.w3.org/2000/svg">
<path opacity="0.5" d="M1.2287 4.38867V3.77988H2.32111V0.957809H2.2699L1.40508 1.98195L0.938524 1.58936L1.92283 0.417292H3.06646V3.77988H3.96542V4.38867H1.2287ZM4.64027 4.38867V3.77988H5.73268V0.957809H5.68147L4.81665 1.98195L4.35009 1.58936L5.33441 0.417292H6.47803V3.77988H7.37699V4.38867H4.64027ZM9.24098 4.45695C9.0058 4.45695 8.79718 4.4285 8.61511 4.3716C8.43305 4.31091 8.27942 4.22936 8.15425 4.12695C8.02908 4.02453 7.93425 3.90315 7.86977 3.76281C7.80529 3.62246 7.77305 3.46884 7.77305 3.30195C7.77305 3.04022 7.84511 2.82971 7.98925 2.6704C8.13718 2.51109 8.33063 2.39919 8.5696 2.33471V2.28919C8.36477 2.21712 8.19977 2.10522 8.0746 1.9535C7.95322 1.80177 7.89253 1.61022 7.89253 1.37884C7.89253 1.22712 7.92287 1.08867 7.98356 0.963499C8.04425 0.834533 8.13149 0.724533 8.24529 0.633499C8.35908 0.542464 8.49942 0.472292 8.66632 0.422982C8.83322 0.373671 9.02477 0.349016 9.24098 0.349016C9.45718 0.349016 9.64874 0.373671 9.81563 0.422982C9.98253 0.472292 10.1229 0.542464 10.2367 0.633499C10.3505 0.724533 10.4377 0.834533 10.4984 0.963499C10.5591 1.08867 10.5894 1.22712 10.5894 1.37884C10.5894 1.61022 10.5268 1.80177 10.4017 1.9535C10.2803 2.10522 10.1172 2.21712 9.91236 2.28919V2.33471C10.1513 2.39919 10.3429 2.51109 10.487 2.6704C10.6349 2.82971 10.7089 3.04022 10.7089 3.30195C10.7089 3.46884 10.6767 3.62246 10.6122 3.76281C10.5477 3.90315 10.4529 4.02453 10.3277 4.12695C10.2025 4.22936 10.0489 4.31091 9.86684 4.3716C9.68477 4.4285 9.47615 4.45695 9.24098 4.45695ZM9.24098 3.8766C9.46477 3.8766 9.63546 3.82729 9.75305 3.72867C9.87442 3.62626 9.93511 3.48591 9.93511 3.30764V3.19384C9.93511 3.01178 9.87632 2.87143 9.75874 2.77281C9.64115 2.6704 9.46856 2.61919 9.24098 2.61919C9.01339 2.61919 8.8408 2.6704 8.72322 2.77281C8.60563 2.87143 8.54684 3.01178 8.54684 3.19384V3.30764C8.54684 3.48591 8.60563 3.62626 8.72322 3.72867C8.8446 3.82729 9.01718 3.8766 9.24098 3.8766ZM9.24098 2.06729C9.4496 2.06729 9.60891 2.01988 9.71891 1.92505C9.82891 1.83022 9.88391 1.69936 9.88391 1.53246V1.45281C9.88391 1.28971 9.82891 1.16264 9.71891 1.0716C9.60891 0.976775 9.4496 0.929361 9.24098 0.929361C9.03236 0.929361 8.87305 0.976775 8.76305 1.0716C8.65305 1.16264 8.59805 1.28971 8.59805 1.45281V1.53246C8.59805 1.69936 8.65305 1.83022 8.76305 1.92505C8.87305 2.01988 9.03236 2.06729 9.24098 2.06729ZM11.8958 4.38867L13.3125 1.02609H11.8958V1.75436H11.2586V0.417292H14.0522V1.06591L12.681 4.38867H11.8958ZM15.3074 4.38867L16.7241 1.02609H15.3074V1.75436H14.6702V0.417292H17.4638V1.06591L16.0926 4.38867H15.3074ZM18.719 4.38867L20.1357 1.02609H18.719V1.75436H18.0817V0.417292H20.8753V1.06591L19.5041 4.38867H18.719ZM26.2988 4.45695C26.0637 4.45695 25.855 4.4285 25.673 4.3716C25.4909 4.31091 25.3373 4.22936 25.2121 4.12695C25.0869 4.02453 24.9921 3.90315 24.9276 3.76281C24.8631 3.62246 24.8309 3.46884 24.8309 3.30195C24.8309 3.04022 24.903 2.82971 25.0471 2.6704C25.195 2.51109 25.3885 2.39919 25.6275 2.33471V2.28919C25.4226 2.21712 25.2576 2.10522 25.1325 1.9535C25.0111 1.80177 24.9504 1.61022 24.9504 1.37884C24.9504 1.22712 24.9807 1.08867 25.0414 0.963499C25.1021 0.834533 25.1893 0.724533 25.3031 0.633499C25.4169 0.542464 25.5573 0.472292 25.7242 0.422982C25.8911 0.373671 26.0826 0.349016 26.2988 0.349016C26.515 0.349016 26.7066 0.373671 26.8735 0.422982C27.0404 0.472292 27.1807 0.542464 27.2945 0.633499C27.4083 0.724533 27.4956 0.834533 27.5562 0.963499C27.6169 1.08867 27.6473 1.22712 27.6473 1.37884C27.6473 1.61022 27.5847 1.80177 27.4595 1.9535C27.3381 2.10522 27.175 2.21712 26.9702 2.28919V2.33471C27.2092 2.39919 27.4007 2.51109 27.5449 2.6704C27.6928 2.82971 27.7668 3.04022 27.7668 3.30195C27.7668 3.46884 27.7345 3.62246 27.67 3.76281C27.6056 3.90315 27.5107 4.02453 27.3856 4.12695C27.2604 4.22936 27.1068 4.31091 26.9247 4.3716C26.7426 4.4285 26.534 4.45695 26.2988 4.45695ZM26.2988 3.8766C26.5226 3.8766 26.6933 3.82729 26.8109 3.72867C26.9323 3.62626 26.993 3.48591 26.993 3.30764V3.19384C26.993 3.01178 26.9342 2.87143 26.8166 2.77281C26.699 2.6704 26.5264 2.61919 26.2988 2.61919C26.0712 2.61919 25.8987 2.6704 25.7811 2.77281C25.6635 2.87143 25.6047 3.01178 25.6047 3.19384V3.30764C25.6047 3.48591 25.6635 3.62626 25.7811 3.72867C25.9025 3.82729 26.075 3.8766 26.2988 3.8766ZM26.2988 2.06729C26.5075 2.06729 26.6668 2.01988 26.7768 1.92505C26.8868 1.83022 26.9418 1.69936 26.9418 1.53246V1.45281C26.9418 1.28971 26.8868 1.16264 26.7768 1.0716C26.6668 0.976775 26.5075 0.929361 26.2988 0.929361C26.0902 0.929361 25.9309 0.976775 25.8209 1.0716C25.7109 1.16264 25.6559 1.28971 25.6559 1.45281V1.53246C25.6559 1.69936 25.7109 1.83022 25.8209 1.92505C25.9309 2.01988 26.0902 2.06729 26.2988 2.06729ZM31.1556 1.90798C31.1556 2.19246 31.112 2.46177 31.0247 2.71591C30.9375 2.96626 30.8237 3.19764 30.6833 3.41005C30.5468 3.61867 30.3932 3.80643 30.2225 3.97333C30.0518 4.14022 29.8811 4.27867 29.7104 4.38867H28.6976C28.9366 4.22178 29.149 4.06246 29.3349 3.91074C29.5245 3.75522 29.6876 3.59781 29.8242 3.4385C29.9645 3.27919 30.0802 3.11419 30.1713 2.9435C30.2661 2.76902 30.3363 2.57936 30.3818 2.37453L30.3363 2.36315C30.2983 2.43902 30.2528 2.51298 30.1997 2.58505C30.1466 2.65712 30.0821 2.71971 30.0063 2.77281C29.9342 2.82591 29.8489 2.86953 29.7502 2.90367C29.6554 2.93402 29.5435 2.94919 29.4145 2.94919C29.2476 2.94919 29.0921 2.92074 28.948 2.86384C28.8039 2.80695 28.6787 2.7254 28.5725 2.61919C28.4663 2.50919 28.3828 2.37833 28.3221 2.2266C28.2652 2.07488 28.2368 1.90419 28.2368 1.71453C28.2368 1.5135 28.2709 1.32953 28.3392 1.16264C28.4075 0.99574 28.5042 0.851603 28.6294 0.730223C28.7583 0.608844 28.912 0.515913 29.0902 0.45143C29.2723 0.383154 29.4733 0.349016 29.6933 0.349016C29.9247 0.349016 30.1295 0.386947 30.3078 0.462809C30.4899 0.534878 30.6435 0.639189 30.7687 0.77574C30.8939 0.908499 30.9887 1.0716 31.0532 1.26505C31.1214 1.45471 31.1556 1.66902 31.1556 1.90798ZM29.699 2.37453C29.9152 2.37453 30.084 2.31574 30.2054 2.19815C30.3268 2.08057 30.3875 1.91177 30.3875 1.69177V1.6235C30.3875 1.4035 30.3287 1.23471 30.2111 1.11712C30.0935 0.99574 29.9228 0.935051 29.699 0.935051C29.4714 0.935051 29.2989 0.99574 29.1813 1.11712C29.0637 1.23471 29.0049 1.4035 29.0049 1.6235V1.69177C29.0049 1.91177 29.0637 2.08057 29.1813 2.19815C29.3026 2.31574 29.4752 2.37453 29.699 2.37453ZM34.5444 4.38867H31.7451V3.69453L33.0196 2.60781C33.232 2.42574 33.3894 2.26074 33.4918 2.11281C33.5942 1.96109 33.6454 1.79988 33.6454 1.62919V1.57229C33.6454 1.38264 33.5923 1.2385 33.4861 1.13988C33.3799 1.04126 33.232 0.991947 33.0423 0.991947C32.8337 0.991947 32.6744 1.04884 32.5644 1.16264C32.4544 1.27643 32.3747 1.41677 32.3254 1.58367L31.6768 1.33902C31.7185 1.21005 31.7773 1.08677 31.8532 0.969189C31.9328 0.847809 32.0296 0.741602 32.1434 0.650568C32.2609 0.559533 32.3994 0.487464 32.5587 0.434361C32.718 0.377464 32.9001 0.349016 33.1049 0.349016C33.3173 0.349016 33.5051 0.379361 33.6682 0.440051C33.8351 0.496947 33.9754 0.578499 34.0892 0.684706C34.203 0.78712 34.2884 0.910396 34.3453 1.05453C34.4059 1.19867 34.4363 1.35609 34.4363 1.52677C34.4363 1.68988 34.4097 1.83971 34.3566 1.97626C34.3073 2.11281 34.2371 2.24367 34.1461 2.36884C34.0551 2.49022 33.947 2.60781 33.8218 2.7216C33.7004 2.8354 33.5677 2.94919 33.4235 3.06298L32.5587 3.76281H34.5444V4.38867ZM36.3742 2.02178C36.6132 2.02178 36.7877 1.97436 36.8977 1.87953C37.0115 1.78471 37.0684 1.66522 37.0684 1.52109V1.48126C37.0684 1.31815 37.0134 1.19109 36.9034 1.10005C36.7972 1.00902 36.6492 0.963499 36.4596 0.963499C36.2775 0.963499 36.1182 1.00522 35.9816 1.08867C35.8451 1.17212 35.7275 1.28971 35.6289 1.44143L35.1453 1.00902C35.2135 0.917982 35.2894 0.832637 35.3729 0.752982C35.4601 0.669533 35.5568 0.599361 35.663 0.542464C35.773 0.481775 35.8944 0.434361 36.0272 0.400223C36.1599 0.366085 36.3116 0.349016 36.4823 0.349016C36.6834 0.349016 36.8673 0.373671 37.0342 0.422982C37.2049 0.468499 37.3491 0.536775 37.4666 0.627809C37.588 0.718844 37.681 0.828844 37.7454 0.957809C37.8137 1.08298 37.8479 1.22522 37.8479 1.38453C37.8479 1.50971 37.827 1.6235 37.7853 1.72591C37.7435 1.82833 37.6866 1.91746 37.6146 1.99333C37.5463 2.06919 37.4648 2.13177 37.3699 2.18109C37.2789 2.2304 37.1803 2.26643 37.0741 2.28919V2.31764C37.1916 2.3404 37.3016 2.37833 37.4041 2.43143C37.5065 2.48074 37.5956 2.54522 37.6715 2.62488C37.7473 2.70453 37.808 2.80126 37.8535 2.91505C37.8991 3.02505 37.9218 3.15022 37.9218 3.29057C37.9218 3.46505 37.8858 3.62436 37.8137 3.7685C37.7416 3.91264 37.6392 4.03591 37.5065 4.13833C37.3775 4.24074 37.2201 4.3204 37.0342 4.37729C36.8522 4.4304 36.6473 4.45695 36.4198 4.45695C36.2301 4.45695 36.0613 4.43609 35.9134 4.39436C35.7654 4.35643 35.6346 4.30333 35.5208 4.23505C35.407 4.16678 35.3084 4.08902 35.2249 4.00178C35.1415 3.91074 35.0675 3.81781 35.003 3.72298L35.5549 3.29626C35.6498 3.45557 35.7616 3.58643 35.8906 3.68884C36.0234 3.79126 36.2035 3.84246 36.4311 3.84246C36.6587 3.84246 36.8332 3.79126 36.9546 3.68884C37.0798 3.58264 37.1423 3.4366 37.1423 3.25074V3.20522C37.1423 3.02315 37.076 2.88471 36.9432 2.78988C36.8104 2.69126 36.6227 2.64195 36.3799 2.64195H35.9816V2.02178H36.3742ZM40.2353 4.38867V3.62057H38.3975V2.98333L40.0191 0.417292H40.9465V3.04022H41.4813V3.62057H40.9465V4.38867H40.2353ZM39.0063 3.04022H40.2353V1.14557H40.1898L39.0063 3.04022ZM44.7791 4.38867H41.9798V3.69453L43.2543 2.60781C43.4667 2.42574 43.6241 2.26074 43.7265 2.11281C43.8289 1.96109 43.8801 1.79988 43.8801 1.62919V1.57229C43.8801 1.38264 43.827 1.2385 43.7208 1.13988C43.6146 1.04126 43.4667 0.991947 43.277 0.991947C43.0684 0.991947 42.9091 1.04884 42.7991 1.16264C42.6891 1.27643 42.6094 1.41677 42.5601 1.58367L41.9115 1.33902C41.9532 1.21005 42.012 1.08677 42.0879 0.969189C42.1675 0.847809 42.2643 0.741602 42.3781 0.650568C42.4957 0.559533 42.6341 0.487464 42.7934 0.434361C42.9527 0.377464 43.1348 0.349016 43.3396 0.349016C43.552 0.349016 43.7398 0.379361 43.9029 0.440051C44.0698 0.496947 44.2101 0.578499 44.3239 0.684706C44.4377 0.78712 44.5231 0.910396 44.58 1.05453C44.6407 1.19867 44.671 1.35609 44.671 1.52677C44.671 1.68988 44.6444 1.83971 44.5913 1.97626C44.542 2.11281 44.4719 2.24367 44.3808 2.36884C44.2898 2.49022 44.1817 2.60781 44.0565 2.7216C43.9351 2.8354 43.8024 2.94919 43.6582 3.06298L42.7934 3.76281H44.7791V4.38867ZM51.6022 4.38867H48.8029V3.69453L50.0774 2.60781C50.2898 2.42574 50.4472 2.26074 50.5497 2.11281C50.6521 1.96109 50.7033 1.79988 50.7033 1.62919V1.57229C50.7033 1.38264 50.6502 1.2385 50.544 1.13988C50.4378 1.04126 50.2898 0.991947 50.1002 0.991947C49.8916 0.991947 49.7322 1.04884 49.6222 1.16264C49.5122 1.27643 49.4326 1.41677 49.3833 1.58367L48.7347 1.33902C48.7764 1.21005 48.8352 1.08677 48.911 0.969189C48.9907 0.847809 49.0874 0.741602 49.2012 0.650568C49.3188 0.559533 49.4572 0.487464 49.6166 0.434361C49.7759 0.377464 49.9579 0.349016 50.1628 0.349016C50.3752 0.349016 50.5629 0.379361 50.726 0.440051C50.8929 0.496947 51.0333 0.578499 51.1471 0.684706C51.2609 0.78712 51.3462 0.910396 51.4031 1.05453C51.4638 1.19867 51.4941 1.35609 51.4941 1.52677C51.4941 1.68988 51.4676 1.83971 51.4145 1.97626C51.3652 2.11281 51.295 2.24367 51.204 2.36884C51.1129 2.49022 51.0048 2.60781 50.8797 2.7216C50.7583 2.8354 50.6255 2.94919 50.4814 3.06298L49.6166 3.76281H51.6022V4.38867ZM53.4321 2.02178C53.6711 2.02178 53.8455 1.97436 53.9555 1.87953C54.0693 1.78471 54.1262 1.66522 54.1262 1.52109V1.48126C54.1262 1.31815 54.0712 1.19109 53.9612 1.10005C53.855 1.00902 53.7071 0.963499 53.5174 0.963499C53.3354 0.963499 53.1761 1.00522 53.0395 1.08867C52.903 1.17212 52.7854 1.28971 52.6867 1.44143L52.2031 1.00902C52.2714 0.917982 52.3473 0.832637 52.4307 0.752982C52.518 0.669533 52.6147 0.599361 52.7209 0.542464C52.8309 0.481775 52.9523 0.434361 53.085 0.400223C53.2178 0.366085 53.3695 0.349016 53.5402 0.349016C53.7412 0.349016 53.9252 0.373671 54.0921 0.422982C54.2628 0.468499 54.4069 0.536775 54.5245 0.627809C54.6459 0.718844 54.7388 0.828844 54.8033 0.957809C54.8716 1.08298 54.9057 1.22522 54.9057 1.38453C54.9057 1.50971 54.8848 1.6235 54.8431 1.72591C54.8014 1.82833 54.7445 1.91746 54.6724 1.99333C54.6042 2.06919 54.5226 2.13177 54.4278 2.18109C54.3367 2.2304 54.2381 2.26643 54.1319 2.28919V2.31764C54.2495 2.3404 54.3595 2.37833 54.4619 2.43143C54.5643 2.48074 54.6535 2.54522 54.7293 2.62488C54.8052 2.70453 54.8659 2.80126 54.9114 2.91505C54.9569 3.02505 54.9797 3.15022 54.9797 3.29057C54.9797 3.46505 54.9436 3.62436 54.8716 3.7685C54.7995 3.91264 54.6971 4.03591 54.5643 4.13833C54.4354 4.24074 54.278 4.3204 54.0921 4.37729C53.91 4.4304 53.7052 4.45695 53.4776 4.45695C53.288 4.45695 53.1192 4.43609 52.9712 4.39436C52.8233 4.35643 52.6924 4.30333 52.5786 4.23505C52.4648 4.16678 52.3662 4.08902 52.2828 4.00178C52.1993 3.91074 52.1254 3.81781 52.0609 3.72298L52.6128 3.29626C52.7076 3.45557 52.8195 3.58643 52.9485 3.68884C53.0812 3.79126 53.2614 3.84246 53.489 3.84246C53.7166 3.84246 53.8911 3.79126 54.0124 3.68884C54.1376 3.58264 54.2002 3.4366 54.2002 3.25074V3.20522C54.2002 3.02315 54.1338 2.88471 54.0011 2.78988C53.8683 2.69126 53.6805 2.64195 53.4378 2.64195H53.0395V2.02178H53.4321ZM57.003 4.45695C56.7678 4.45695 56.5592 4.4285 56.3771 4.3716C56.195 4.31091 56.0414 4.22936 55.9162 4.12695C55.7911 4.02453 55.6962 3.90315 55.6318 3.76281C55.5673 3.62246 55.535 3.46884 55.535 3.30195C55.535 3.04022 55.6071 2.82971 55.7512 2.6704C55.8992 2.51109 56.0926 2.39919 56.3316 2.33471V2.28919C56.1268 2.21712 55.9618 2.10522 55.8366 1.9535C55.7152 1.80177 55.6545 1.61022 55.6545 1.37884C55.6545 1.22712 55.6849 1.08867 55.7456 0.963499C55.8062 0.834533 55.8935 0.724533 56.0073 0.633499C56.1211 0.542464 56.2614 0.472292 56.4283 0.422982C56.5952 0.373671 56.7868 0.349016 57.003 0.349016C57.2192 0.349016 57.4107 0.373671 57.5776 0.422982C57.7445 0.472292 57.8849 0.542464 57.9987 0.633499C58.1125 0.724533 58.1997 0.834533 58.2604 0.963499C58.3211 1.08867 58.3514 1.22712 58.3514 1.37884C58.3514 1.61022 58.2888 1.80177 58.1637 1.9535C58.0423 2.10522 57.8792 2.21712 57.6744 2.28919V2.33471C57.9133 2.39919 58.1049 2.51109 58.249 2.6704C58.3969 2.82971 58.4709 3.04022 58.4709 3.30195C58.4709 3.46884 58.4387 3.62246 58.3742 3.76281C58.3097 3.90315 58.2149 4.02453 58.0897 4.12695C57.9645 4.22936 57.8109 4.31091 57.6288 4.3716C57.4468 4.4285 57.2381 4.45695 57.003 4.45695ZM57.003 3.8766C57.2268 3.8766 57.3975 3.82729 57.515 3.72867C57.6364 3.62626 57.6971 3.48591 57.6971 3.30764V3.19384C57.6971 3.01178 57.6383 2.87143 57.5207 2.77281C57.4031 2.6704 57.2306 2.61919 57.003 2.61919C56.7754 2.61919 56.6028 2.6704 56.4852 2.77281C56.3676 2.87143 56.3088 3.01178 56.3088 3.19384V3.30764C56.3088 3.48591 56.3676 3.62626 56.4852 3.72867C56.6066 3.82729 56.7792 3.8766 57.003 3.8766ZM57.003 2.06729C57.2116 2.06729 57.3709 2.01988 57.4809 1.92505C57.5909 1.83022 57.6459 1.69936 57.6459 1.53246V1.45281C57.6459 1.28971 57.5909 1.16264 57.4809 1.0716C57.3709 0.976775 57.2116 0.929361 57.003 0.929361C56.7943 0.929361 56.635 0.976775 56.525 1.0716C56.415 1.16264 56.36 1.28971 56.36 1.45281V1.53246C56.36 1.69936 56.415 1.83022 56.525 1.92505C56.635 2.01988 56.7943 2.06729 57.003 2.06729ZM60.7047 4.38867V3.62057H58.867V2.98333L60.4885 0.417292H61.4159V3.04022H61.9507V3.62057H61.4159V4.38867H60.7047ZM59.4757 3.04022H60.7047V1.14557H60.6592L59.4757 3.04022ZM63.6668 2.02178C63.9058 2.02178 64.0803 1.97436 64.1903 1.87953C64.304 1.78471 64.3609 1.66522 64.3609 1.52109V1.48126C64.3609 1.31815 64.3059 1.19109 64.1959 1.10005C64.0897 1.00902 63.9418 0.963499 63.7521 0.963499C63.5701 0.963499 63.4108 1.00522 63.2742 1.08867C63.1377 1.17212 63.0201 1.28971 62.9215 1.44143L62.4378 1.00902C62.5061 0.917982 62.582 0.832637 62.6654 0.752982C62.7527 0.669533 62.8494 0.599361 62.9556 0.542464C63.0656 0.481775 63.187 0.434361 63.3197 0.400223C63.4525 0.366085 63.6042 0.349016 63.7749 0.349016C63.9759 0.349016 64.1599 0.373671 64.3268 0.422982C64.4975 0.468499 64.6416 0.536775 64.7592 0.627809C64.8806 0.718844 64.9735 0.828844 65.038 0.957809C65.1063 1.08298 65.1404 1.22522 65.1404 1.38453C65.1404 1.50971 65.1196 1.6235 65.0778 1.72591C65.0361 1.82833 64.9792 1.91746 64.9071 1.99333C64.8389 2.06919 64.7573 2.13177 64.6625 2.18109C64.5715 2.2304 64.4728 2.26643 64.3666 2.28919V2.31764C64.4842 2.3404 64.5942 2.37833 64.6966 2.43143C64.799 2.48074 64.8882 2.54522 64.964 2.62488C65.0399 2.70453 65.1006 2.80126 65.1461 2.91505C65.1916 3.02505 65.2144 3.15022 65.2144 3.29057C65.2144 3.46505 65.1784 3.62436 65.1063 3.7685C65.0342 3.91264 64.9318 4.03591 64.799 4.13833C64.6701 4.24074 64.5127 4.3204 64.3268 4.37729C64.1447 4.4304 63.9399 4.45695 63.7123 4.45695C63.5227 4.45695 63.3539 4.43609 63.2059 4.39436C63.058 4.35643 62.9271 4.30333 62.8134 4.23505C62.6996 4.16678 62.6009 4.08902 62.5175 4.00178C62.434 3.91074 62.3601 3.81781 62.2956 3.72298L62.8475 3.29626C62.9423 3.45557 63.0542 3.58643 63.1832 3.68884C63.3159 3.79126 63.4961 3.84246 63.7237 3.84246C63.9513 3.84246 64.1258 3.79126 64.2471 3.68884C64.3723 3.58264 64.4349 3.4366 64.4349 3.25074V3.20522C64.4349 3.02315 64.3685 2.88471 64.2358 2.78988C64.103 2.69126 63.9153 2.64195 63.6725 2.64195H63.2742V2.02178H63.6668ZM68.6601 4.38867H65.8608V3.69453L67.1353 2.60781C67.3477 2.42574 67.5051 2.26074 67.6075 2.11281C67.7099 1.96109 67.7611 1.79988 67.7611 1.62919V1.57229C67.7611 1.38264 67.708 1.2385 67.6018 1.13988C67.4956 1.04126 67.3477 0.991947 67.158 0.991947C66.9494 0.991947 66.7901 1.04884 66.6801 1.16264C66.5701 1.27643 66.4904 1.41677 66.4411 1.58367L65.7925 1.33902C65.8342 1.21005 65.893 1.08677 65.9689 0.969189C66.0485 0.847809 66.1453 0.741602 66.2591 0.650568C66.3766 0.559533 66.5151 0.487464 66.6744 0.434361C66.8337 0.377464 67.0158 0.349016 67.2206 0.349016C67.433 0.349016 67.6208 0.379361 67.7839 0.440051C67.9508 0.496947 68.0911 0.578499 68.2049 0.684706C68.3187 0.78712 68.4041 0.910396 68.461 1.05453C68.5216 1.19867 68.552 1.35609 68.552 1.52677C68.552 1.68988 68.5254 1.83971 68.4723 1.97626C68.423 2.11281 68.3529 2.24367 68.2618 2.36884C68.1708 2.49022 68.0627 2.60781 67.9375 2.7216C67.8161 2.8354 67.6834 2.94919 67.5392 3.06298L66.6744 3.76281H68.6601V4.38867ZM70.6493 4.45695C70.3913 4.45695 70.1675 4.41143 69.9779 4.3204C69.7882 4.22557 69.6308 4.09091 69.5056 3.91643C69.3843 3.74195 69.2932 3.52764 69.2325 3.2735C69.1756 3.01936 69.1472 2.72919 69.1472 2.40298C69.1472 2.08057 69.1756 1.79229 69.2325 1.53815C69.2932 1.28022 69.3843 1.06402 69.5056 0.889534C69.6308 0.715051 69.7882 0.582292 69.9779 0.491257C70.1675 0.39643 70.3913 0.349016 70.6493 0.349016C71.1651 0.349016 71.5444 0.529189 71.7872 0.889534C72.0299 1.24988 72.1513 1.75436 72.1513 2.40298C72.1513 3.0516 72.0299 3.55609 71.7872 3.91643C71.5444 4.27678 71.1651 4.45695 70.6493 4.45695ZM70.6493 3.85953C70.9224 3.85953 71.1139 3.76281 71.2239 3.56936C71.3377 3.37212 71.3946 3.10091 71.3946 2.75574V2.05022C71.3946 1.70505 71.3377 1.43574 71.2239 1.24229C71.1139 1.04505 70.9224 0.94643 70.6493 0.94643C70.3762 0.94643 70.1827 1.04505 70.0689 1.24229C69.9589 1.43574 69.9039 1.70505 69.9039 2.05022V2.75574C69.9039 3.10091 69.9589 3.37212 70.0689 3.56936C70.1827 3.76281 70.3762 3.85953 70.6493 3.85953ZM70.6493 2.73867C70.5165 2.73867 70.4236 2.71212 70.3705 2.65902C70.3212 2.60591 70.2965 2.54143 70.2965 2.46557V2.3404C70.2965 2.26453 70.3212 2.20005 70.3705 2.14695C70.4236 2.09384 70.5165 2.06729 70.6493 2.06729C70.782 2.06729 70.873 2.09384 70.9224 2.14695C70.9755 2.20005 71.002 2.26453 71.002 2.3404V2.46557C71.002 2.54143 70.9755 2.60591 70.9224 2.65902C70.873 2.71212 70.782 2.73867 70.6493 2.73867ZM75.506 1.90798C75.506 2.19246 75.4624 2.46177 75.3751 2.71591C75.2879 2.96626 75.1741 3.19764 75.0338 3.41005C74.8972 3.61867 74.7436 3.80643 74.5729 3.97333C74.4022 4.14022 74.2315 4.27867 74.0608 4.38867H73.0481C73.287 4.22178 73.4994 4.06246 73.6853 3.91074C73.875 3.75522 74.0381 3.59781 74.1746 3.4385C74.315 3.27919 74.4307 3.11419 74.5217 2.9435C74.6165 2.76902 74.6867 2.57936 74.7322 2.37453L74.6867 2.36315C74.6488 2.43902 74.6032 2.51298 74.5501 2.58505C74.497 2.65712 74.4325 2.71971 74.3567 2.77281C74.2846 2.82591 74.1993 2.86953 74.1007 2.90367C74.0058 2.93402 73.8939 2.94919 73.765 2.94919C73.5981 2.94919 73.4425 2.92074 73.2984 2.86384C73.1543 2.80695 73.0291 2.7254 72.9229 2.61919C72.8167 2.50919 72.7332 2.37833 72.6725 2.2266C72.6157 2.07488 72.5872 1.90419 72.5872 1.71453C72.5872 1.5135 72.6213 1.32953 72.6896 1.16264C72.7579 0.99574 72.8546 0.851603 72.9798 0.730223C73.1088 0.608844 73.2624 0.515913 73.4407 0.45143C73.6227 0.383154 73.8238 0.349016 74.0438 0.349016C74.2751 0.349016 74.48 0.386947 74.6582 0.462809C74.8403 0.534878 74.9939 0.639189 75.1191 0.77574C75.2443 0.908499 75.3391 1.0716 75.4036 1.26505C75.4719 1.45471 75.506 1.66902 75.506 1.90798ZM74.0494 2.37453C74.2657 2.37453 74.4344 2.31574 74.5558 2.19815C74.6772 2.08057 74.7379 1.91177 74.7379 1.69177V1.6235C74.7379 1.4035 74.6791 1.23471 74.5615 1.11712C74.4439 0.99574 74.2732 0.935051 74.0494 0.935051C73.8219 0.935051 73.6493 0.99574 73.5317 1.11712C73.4141 1.23471 73.3553 1.4035 73.3553 1.6235V1.69177C73.3553 1.91177 73.4141 2.08057 73.5317 2.19815C73.6531 2.31574 73.8257 2.37453 74.0494 2.37453ZM77.4724 4.45695C77.2372 4.45695 77.0286 4.4285 76.8465 4.3716C76.6645 4.31091 76.5108 4.22936 76.3857 4.12695C76.2605 4.02453 76.1657 3.90315 76.1012 3.76281C76.0367 3.62246 76.0045 3.46884 76.0045 3.30195C76.0045 3.04022 76.0765 2.82971 76.2207 2.6704C76.3686 2.51109 76.5621 2.39919 76.801 2.33471V2.28919C76.5962 2.21712 76.4312 2.10522 76.306 1.9535C76.1846 1.80177 76.124 1.61022 76.124 1.37884C76.124 1.22712 76.1543 1.08867 76.215 0.963499C76.2757 0.834533 76.3629 0.724533 76.4767 0.633499C76.5905 0.542464 76.7308 0.472292 76.8977 0.422982C77.0646 0.373671 77.2562 0.349016 77.4724 0.349016C77.6886 0.349016 77.8802 0.373671 78.0471 0.422982C78.214 0.472292 78.3543 0.542464 78.4681 0.633499C78.5819 0.724533 78.6691 0.834533 78.7298 0.963499C78.7905 1.08867 78.8208 1.22712 78.8208 1.37884C78.8208 1.61022 78.7583 1.80177 78.6331 1.9535C78.5117 2.10522 78.3486 2.21712 78.1438 2.28919V2.33471C78.3827 2.39919 78.5743 2.51109 78.7184 2.6704C78.8664 2.82971 78.9403 3.04022 78.9403 3.30195C78.9403 3.46884 78.9081 3.62246 78.8436 3.76281C78.7791 3.90315 78.6843 4.02453 78.5591 4.12695C78.434 4.22936 78.2803 4.31091 78.0983 4.3716C77.9162 4.4285 77.7076 4.45695 77.4724 4.45695ZM77.4724 3.8766C77.6962 3.8766 77.8669 3.82729 77.9845 3.72867C78.1058 3.62626 78.1665 3.48591 78.1665 3.30764V3.19384C78.1665 3.01178 78.1077 2.87143 77.9902 2.77281C77.8726 2.6704 77.7 2.61919 77.4724 2.61919C77.2448 2.61919 77.0722 2.6704 76.9546 2.77281C76.8371 2.87143 76.7783 3.01178 76.7783 3.19384V3.30764C76.7783 3.48591 76.8371 3.62626 76.9546 3.72867C77.076 3.82729 77.2486 3.8766 77.4724 3.8766ZM77.4724 2.06729C77.681 2.06729 77.8403 2.01988 77.9503 1.92505C78.0603 1.83022 78.1153 1.69936 78.1153 1.53246V1.45281C78.1153 1.28971 78.0603 1.16264 77.9503 1.0716C77.8403 0.976775 77.681 0.929361 77.4724 0.929361C77.2638 0.929361 77.1045 0.976775 76.9945 1.0716C76.8845 1.16264 76.8295 1.28971 76.8295 1.45281V1.53246C76.8295 1.69936 76.8845 1.83022 76.9945 1.92505C77.1045 2.01988 77.2638 2.06729 77.4724 2.06729Z" fill="#F75049"/>
</svg>
