<svg width="161" height="33" viewBox="0 0 161 33" fill="none" xmlns="http://www.w3.org/2000/svg">
<path d="M26.7429 27.2735L22.6998 31.2605L22.6679 31.273L22.6488 31.2228C22.5215 30.8586 21.7956 28.6673 21.1653 26.0428C20.9297 25.0571 20.7387 24.1341 20.5859 23.2739C20.5795 23.2488 20.5795 23.2237 20.5731 23.1986C20.1147 20.5427 20.0829 18.5084 20.4713 17.014C20.9997 14.9483 22.5597 11.9031 24.0177 9.3163C21.3945 10.7541 18.3064 12.2924 16.2116 12.8135C14.6326 13.2091 12.4614 13.1589 9.60897 12.6566C9.5835 12.6503 9.55802 12.6503 9.53255 12.644C8.75576 12.5059 7.93441 12.3364 7.05575 12.1292C4.38793 11.5076 2.1658 10.7855 1.80288 10.6662C1.77741 10.6599 1.75832 10.6537 1.75195 10.6474L1.76467 10.6097L5.80779 6.62271C5.83325 6.62899 5.85236 6.63527 5.87783 6.64155C8.80034 7.45151 12.2322 8.15472 14.1869 8.04798C14.2188 8.04798 14.2506 8.04171 14.2824 8.04171C14.5371 8.02288 14.7663 7.99148 14.9573 7.94125C17.727 7.25059 24.0241 3.5587 26.2144 2.18994L26.3927 2.07692L26.59 1.99529C27.717 1.53067 29.4043 1.59973 30.6141 2.79269C31.8302 3.99193 31.8939 5.64951 31.4227 6.76084L31.3399 6.95549L31.2253 7.1313C29.8437 9.29118 26.0998 15.5008 25.393 18.2321C25.3739 18.3074 25.3548 18.3828 25.3421 18.4707C25.3357 18.5021 25.3294 18.5398 25.3294 18.5774C25.0683 20.392 25.8324 24.0901 26.711 27.1918C26.7301 27.2295 26.7365 27.2546 26.7429 27.2735Z" fill="#FFFB00"/>
<path d="M7.57789 25.528L5.93516 16.3987L15.1929 18.0186L16.842 27.1542L7.57789 25.528Z" fill="#FFFB00"/>
<path d="M112.854 8.43359H125.513V11.3051H120.652V24.8598H117.715V11.3051H112.854V8.43359Z" fill="white"/>
<path d="M101.794 8.43359H110.234V11.3051H101.695C100.19 11.3051 99.5235 12.1082 99.5235 13.252C99.5235 14.2497 100.042 15.1988 101.991 15.1988H105.89C110.431 15.1988 111.492 17.681 111.492 20.0415C111.492 22.8157 109.987 24.8598 106.187 24.8598H96.9077L95.8564 21.9883H106.285C107.865 21.9883 108.58 21.1365 108.58 19.9441C108.58 18.8734 108.013 17.9 105.964 17.9H102.09C97.648 17.9 96.6116 15.4421 96.6116 13.1546C96.6116 10.4291 98.0922 8.43359 101.794 8.43359Z" fill="white"/>
<path d="M84.2587 11.6449L78.9776 24.8589H75.7695L81.6181 10.2578C82.2351 8.72467 83.3703 8.14062 85.1224 8.14062C86.8498 8.14062 87.985 8.72467 88.5773 10.2578L94.2038 24.8589H90.971L85.9121 11.6449C85.764 11.2555 85.4926 11.0852 85.0977 11.0852C84.7029 11.0852 84.4314 11.2555 84.2587 11.6449Z" fill="white"/>
<path d="M61.2744 8.43359H64.1864V19.1654C64.1864 20.7472 64.9761 21.9883 67.5919 21.9883H74.4079L73.0062 24.8598H67.4192C63.0019 24.8598 61.2744 22.475 61.2744 19.1897V8.43359Z" fill="white"/>
<path d="M45.5167 8.43359H52.846C56.7698 8.43359 58.4232 10.2587 58.4232 12.9356C58.4232 14.8337 57.5841 15.9775 56.0294 16.5859C57.6088 17.2186 58.4972 18.4353 58.4972 20.3335C58.4972 22.9617 56.8438 24.8598 52.92 24.8598H45.5167C44.579 24.8598 44.1348 24.4218 44.1348 23.5214V9.77203C44.1348 8.87163 44.579 8.43359 45.5167 8.43359ZM46.9974 17.754V21.7449C46.9974 21.9396 47.1208 22.0126 47.3182 22.0126H52.9941C54.7462 22.0126 55.5605 21.2096 55.5605 19.8711C55.5605 18.484 54.6968 17.754 52.9941 17.754H46.9974ZM46.9974 11.5485V15.3691H52.92C54.6475 15.3691 55.4865 14.7364 55.4865 13.398C55.4865 12.1082 54.7215 11.2565 52.9447 11.2565H47.3182C47.1208 11.2565 46.9974 11.3538 46.9974 11.5485Z" fill="white"/>
<path d="M145.355 8.43359H153.894C157.645 8.43359 159.249 10.7211 159.249 13.3493C159.249 15.8315 157.793 18.5083 153.894 18.5083H148.712C148.44 18.5083 148.292 18.63 148.292 18.922V24.8598H145.38V18.3623C145.38 16.5129 146.17 15.7585 147.996 15.7585H153.993C155.646 15.7585 156.312 14.6391 156.312 13.4953C156.312 12.3029 155.597 11.3051 154.017 11.3051H145.355V8.43359Z" fill="white"/>
<path d="M128.196 8.43359H131.158V19.4087C131.158 21.0392 131.997 21.9883 133.922 21.9883H136.883C138.758 21.9883 139.622 21.0392 139.622 19.4087V8.43359H142.485V19.6278C142.485 23.0834 140.634 24.8598 137.08 24.8598H133.576C130.022 24.8598 128.196 23.0834 128.196 19.6278V8.43359Z" fill="white"/>
</svg>
