<svg width="499" height="105" viewBox="0 0 499 105" fill="none" xmlns="http://www.w3.org/2000/svg">
<path fill-rule="evenodd" clip-rule="evenodd" d="M252.361 105.001L258.698 105.001L278.751 105.001L294.191 98.9181C294.891 98.6422 295.637 98.5005 296.39 98.5005L329.323 98.5005C329.938 98.5005 330.549 98.5952 331.136 98.7811L349.866 104.72C350.452 104.906 351.064 105.001 351.679 105.001L378.4 105.001L498.251 105.001L498.251 0.000434875L6.01008 0.00191009C1.2515 0.00191731 -1.61339 5.27632 0.976998 9.26807L55.11 92.6862C55.6698 93.5489 56.442 94.2532 57.3524 94.7315L67.3836 100.002L67.9176 100.002L68.3856 100.528L72.7636 102.829L70.251 100.002L73.9176 100.002L78.362 105.002L78.3802 105.002L80.6954 105.002L76.251 100.002L79.9176 100.002L84.3621 105.002L86.6954 105.002L82.251 100.002L85.9176 100.002L90.3621 105.002L92.6954 105.002L88.251 100.002L91.9176 100.002L96.3621 105.002L98.6954 105.002L94.251 100.002L97.9176 100.002L102.362 105.002L104.695 105.002L100.251 100.002L103.918 100.002L108.362 105.002L110.695 105.002L106.251 100.002L109.918 100.002L114.362 105.002L116.695 105.002L112.251 100.002L115.918 100.002L120.362 105.002L122.695 105.002L118.251 100.002L121.918 100.002L126.362 105.002L126.751 105.002L128.695 105.002L124.251 100.002L127.918 100.002L132.362 105.002L134.695 105.001L130.251 100.002L133.918 100.002L138.361 105.001L140.695 105.001L136.251 100.002L139.918 100.002L144.361 105.001L146.694 105.001L142.251 100.002L145.918 100.002L150.361 105L152.694 105L148.251 100.002L151.918 100.002L156.361 105L158.694 105L154.251 100.002L157.918 100.002L162.361 105L164.694 105L160.251 100.002L163.918 100.002L168.361 105L170.694 105L166.251 100.002L169.918 100.002L174.361 105L176.694 105L172.251 100.002L175.918 100.002L180.361 105L182.694 105L178.251 100.002L181.918 100.002L186.361 105L188.694 105L184.251 100.002L187.918 100.002L192.361 105L194.694 105L190.251 100.002L193.918 100.002L198.361 105L200.694 105L196.251 100.002L199.918 100.002L204.361 105L206.694 105L202.251 100.002L205.918 100.002L210.361 105L212.694 105L208.251 100.002L211.918 100.002L216.361 105L218.694 105L214.251 100.002L217.918 100.002L222.361 105L224.694 105L220.251 100.002L223.918 100.002L228.361 105L230.694 105L226.251 100.002L229.918 100.002L234.361 105.001L236.694 105.001L232.251 100.002L235.918 100.002L240.361 105.001L242.694 105.001L238.251 100.002L241.918 100.002L246.361 105.001L248.694 105.001L244.251 100.002L247.918 100.002L252.361 105.001ZM10.751 6.0019C9.37028 6.0019 8.25099 7.12118 8.25098 8.5019C8.25098 9.88261 9.37028 11.0019 10.751 11.0019C12.1317 11.0019 13.251 9.88261 13.251 8.5019C13.251 7.12118 12.1317 6.0019 10.751 6.0019Z" fill="#1A1B23"/>
</svg>
