<svg width="160" height="51" viewBox="0 0 160 51" fill="none" xmlns="http://www.w3.org/2000/svg">
<path d="M159 6V45C159 48.0376 156.538 50.5 153.5 50.5H8.09451C4.40201 50.5 1.75845 46.9336 2.83218 43.4007L14.6851 4.40067C15.3893 2.08377 17.5259 0.5 19.9475 0.5H33H37.5H44.25C45.1528 0.5 46.0417 0.722218 46.8382 1.14704L47.9413 1.73531C48.8826 2.23738 49.9331 2.5 51 2.5H128.907C130.038 2.5 131.149 2.20479 132.132 1.64356L132.865 1.22468C133.696 0.749792 134.636 0.5 135.593 0.5H146.75H153.5C156.538 0.5 159 2.96243 159 6Z" fill="url(#paint0_radial_888_17426)" stroke="#FBF853"/>
<path d="M93.7032 17.7408C91.9186 16.9351 90.0048 16.3414 88.0039 16.0014C87.9674 15.9949 87.931 16.0113 87.9123 16.0441C87.6661 16.4748 87.3935 17.0367 87.2026 17.4784C85.0505 17.1614 82.9094 17.1614 80.8014 17.4784C80.6104 17.0269 80.3279 16.4748 80.0807 16.0441C80.0619 16.0124 80.0255 15.996 79.9891 16.0014C77.9892 16.3403 76.0755 16.934 74.2898 17.7408C74.2743 17.7473 74.261 17.7583 74.2523 17.7725C70.6223 23.1086 69.6279 28.3136 70.1157 33.4541C70.1179 33.4792 70.1323 33.5033 70.1521 33.5186C72.5471 35.2492 74.867 36.2998 77.1438 36.9962C77.1803 37.0071 77.2189 36.994 77.2421 36.9645C77.7806 36.2408 78.2607 35.4777 78.6724 34.6752C78.6967 34.6282 78.6735 34.5725 78.6238 34.5539C77.8623 34.2696 77.1372 33.9231 76.4397 33.5295C76.3845 33.4978 76.3801 33.4202 76.4309 33.383C76.5776 33.2748 76.7245 33.1621 76.8646 33.0484C76.89 33.0277 76.9253 33.0233 76.9551 33.0364C81.5375 35.095 86.4985 35.095 91.0268 33.0364C91.0566 33.0222 91.0919 33.0266 91.1184 33.0474C91.2586 33.1611 91.4054 33.2748 91.5533 33.383C91.604 33.4202 91.6007 33.4978 91.5455 33.5295C90.848 33.9307 90.1229 34.2696 89.3603 34.5528C89.3106 34.5714 89.2885 34.6282 89.3128 34.6752C89.7333 35.4766 90.2134 36.2396 90.742 36.9634C90.7641 36.994 90.8038 37.0071 90.8403 36.9962C93.1282 36.2998 95.4481 35.2492 97.843 33.5186C97.864 33.5033 97.8772 33.4803 97.8794 33.4552C98.4633 27.5122 96.9016 22.3499 93.7396 17.7736C93.7319 17.7583 93.7186 17.7473 93.7032 17.7408ZM79.3567 30.3241C77.9771 30.3241 76.8403 29.0778 76.8403 27.5472C76.8403 26.0167 77.955 24.7704 79.3567 24.7704C80.7694 24.7704 81.8951 26.0276 81.873 27.5472C81.873 29.0778 80.7583 30.3241 79.3567 30.3241ZM88.6605 30.3241C87.281 30.3241 86.1442 29.0778 86.1442 27.5472C86.1442 26.0167 87.2589 24.7704 88.6605 24.7704C90.0732 24.7704 91.199 26.0276 91.1769 27.5472C91.1769 29.0778 90.0732 30.3241 88.6605 30.3241Z" fill="black"/>
<defs>
<radialGradient id="paint0_radial_888_17426" cx="0" cy="0" r="1" gradientUnits="userSpaceOnUse" gradientTransform="translate(80 26) rotate(90) scale(63 100.688)">
<stop stop-color="#FFFC5E"/>
<stop offset="1" stop-color="#FFFC5E" stop-opacity="0.64"/>
</radialGradient>
</defs>
</svg>
