<svg width="160" height="51" viewBox="0 0 160 51" fill="none" xmlns="http://www.w3.org/2000/svg">
<path d="M0.5 45V6C0.5 2.96243 2.96243 0.5 6 0.5H151.405C155.098 0.5 157.742 4.0664 156.668 7.59933L144.815 46.5993C144.111 48.9162 141.974 50.5 139.553 50.5H126.5H122H115.25C114.347 50.5 113.458 50.2778 112.662 49.853L111.559 49.2647C110.617 48.7626 109.567 48.5 108.5 48.5H30.5934C29.4622 48.5 28.3506 48.7952 27.3684 49.3564L26.6354 49.7753C25.8043 50.2502 24.8638 50.5 23.9066 50.5H12.75H6C2.96243 50.5 0.5 48.0376 0.5 45Z" fill="url(#paint0_radial_888_17422)" stroke="#FD0130"/>
<path d="M80.3263 14.9043H83.6998L76.3297 23.3278L85 34.7903H78.2112L72.894 27.8383L66.8099 34.7903H63.4344L71.3174 25.7804L63 14.9043H69.9611L74.7674 21.2586L80.3263 14.9043ZM79.1423 32.7711H81.0116L68.9454 16.8174H66.9395L79.1423 32.7711Z" fill="white"/>
<defs>
<radialGradient id="paint0_radial_888_17422" cx="0" cy="0" r="1" gradientUnits="userSpaceOnUse" gradientTransform="translate(80 26) rotate(90) scale(66 105.482)">
<stop stop-color="#FF002F"/>
<stop offset="1" stop-color="#FF002F" stop-opacity="0.37"/>
</radialGradient>
</defs>
</svg>
