<svg width="423" height="423" viewBox="0 0 423 423" fill="none" xmlns="http://www.w3.org/2000/svg">
<rect x="35" y="35" width="35.1667" height="35.1667" stroke="#FFFC54"/>
<rect x="70" y="35" width="35.1667" height="35.1667" stroke="#FFFC54"/>
<rect x="105" y="35" width="35.1667" height="35.1667" stroke="#FFFC54"/>
<rect x="141" y="35" width="35.1667" height="35.1667" stroke="#FFFC54"/>
<rect x="176" y="35" width="35.1667" height="35.1667" stroke="#FFFC54"/>
<rect x="211" y="35" width="35.1667" height="35.1667" stroke="#FFFC54"/>
<rect x="246" y="35" width="35.1667" height="35.1667" stroke="#FFFC54"/>
<rect x="281" y="35" width="35.1667" height="35.1667" stroke="#FFFC54"/>
<rect x="316" y="35" width="35.1667" height="35.1667" stroke="#FFFC54"/>
<rect x="352" y="35" width="35.1667" height="35.1667" stroke="#FFFC54"/>
<rect x="387" y="35" width="35.1667" height="35.1667" stroke="#FFFC54"/>
<rect x="35" y="70" width="35.1667" height="35.1667" stroke="#FFFC54"/>
<rect x="70" y="70" width="35.1667" height="35.1667" stroke="#FFFC54"/>
<rect x="105" y="70" width="35.1667" height="35.1667" stroke="#FFFC54"/>
<rect x="141" y="70" width="35.1667" height="35.1667" stroke="#FFFC54"/>
<rect x="176" y="70" width="35.1667" height="35.1667" stroke="#FFFC54"/>
<rect x="211" y="70" width="35.1667" height="35.1667" stroke="#FFFC54"/>
<rect x="246" y="70" width="35.1667" height="35.1667" stroke="#FFFC54"/>
<rect x="281" y="70" width="35.1667" height="35.1667" stroke="#FFFC54"/>
<rect x="316" y="70" width="35.1667" height="35.1667" stroke="#FFFC54"/>
<rect x="352" y="70" width="35.1667" height="35.1667" stroke="#FFFC54"/>
<rect x="387" y="70" width="35.1667" height="35.1667" stroke="#FFFC54"/>
<rect x="35" y="105" width="35.1667" height="35.1667" stroke="#FFFC54"/>
<rect x="70" y="105" width="35.1667" height="35.1667" stroke="#FFFC54"/>
<rect x="105" y="105" width="35.1667" height="35.1667" stroke="#FFFC54"/>
<rect x="141" y="105" width="35.1667" height="35.1667" stroke="#FFFC54"/>
<rect x="176" y="105" width="35.1667" height="35.1667" stroke="#FFFC54"/>
<rect x="211" y="105" width="35.1667" height="35.1667" stroke="#FFFC54"/>
<rect x="246" y="105" width="35.1667" height="35.1667" stroke="#FFFC54"/>
<rect x="281" y="105" width="35.1667" height="35.1667" stroke="#FFFC54"/>
<rect x="316" y="105" width="35.1667" height="35.1667" stroke="#FFFC54"/>
<rect x="352" y="105" width="35.1667" height="35.1667" stroke="#FFFC54"/>
<rect x="387" y="105" width="35.1667" height="35.1667" stroke="#FFFC54"/>
<rect x="35" y="140" width="35.1667" height="35.1667" stroke="#FFFC54"/>
<rect x="70" y="140" width="35.1667" height="35.1667" stroke="#FFFC54"/>
<rect x="105" y="140" width="35.1667" height="35.1667" stroke="#FFFC54"/>
<rect x="141" y="140" width="35.1667" height="35.1667" stroke="#FFFC54"/>
<rect x="176" y="140" width="35.1667" height="35.1667" stroke="#FFFC54"/>
<rect x="211" y="140" width="35.1667" height="35.1667" stroke="#FFFC54"/>
<rect x="246" y="140" width="35.1667" height="35.1667" stroke="#FFFC54"/>
<rect x="281" y="140" width="35.1667" height="35.1667" stroke="#FFFC54"/>
<rect x="316" y="140" width="35.1667" height="35.1667" stroke="#FFFC54"/>
<rect x="352" y="140" width="35.1667" height="35.1667" stroke="#FFFC54"/>
<rect x="387" y="140" width="35.1667" height="35.1667" stroke="#FFFC54"/>
<rect x="35" y="176" width="35.1667" height="35.1667" stroke="#FFFC54"/>
<rect x="70" y="176" width="35.1667" height="35.1667" stroke="#FFFC54"/>
<rect x="105" y="176" width="35.1667" height="35.1667" stroke="#FFFC54"/>
<rect x="141" y="176" width="35.1667" height="35.1667" stroke="#FFFC54"/>
<rect x="176" y="176" width="35.1667" height="35.1667" stroke="#FFFC54"/>
<rect x="211" y="176" width="35.1667" height="35.1667" stroke="#FFFC54"/>
<rect x="246" y="176" width="35.1667" height="35.1667" stroke="#FFFC54"/>
<rect x="281" y="176" width="35.1667" height="35.1667" stroke="#FFFC54"/>
<rect x="316" y="176" width="35.1667" height="35.1667" stroke="#FFFC54"/>
<rect x="352" y="176" width="35.1667" height="35.1667" stroke="#FFFC54"/>
<rect x="387" y="176" width="35.1667" height="35.1667" stroke="#FFFC54"/>
<rect x="35" y="211" width="35.1667" height="35.1667" stroke="#FFFC54"/>
<rect x="70" y="211" width="35.1667" height="35.1667" stroke="#FFFC54"/>
<rect x="105" y="211" width="35.1667" height="35.1667" stroke="#FFFC54"/>
<rect x="141" y="211" width="35.1667" height="35.1667" stroke="#FFFC54"/>
<rect x="176" y="211" width="35.1667" height="35.1667" stroke="#FFFC54"/>
<rect x="211" y="211" width="35.1667" height="35.1667" stroke="#FFFC54"/>
<rect x="246" y="211" width="35.1667" height="35.1667" stroke="#FFFC54"/>
<rect x="281" y="211" width="35.1667" height="35.1667" stroke="#FFFC54"/>
<rect x="316" y="211" width="35.1667" height="35.1667" stroke="#FFFC54"/>
<rect x="352" y="211" width="35.1667" height="35.1667" stroke="#FFFC54"/>
<rect x="387" y="211" width="35.1667" height="35.1667" stroke="#FFFC54"/>
<rect x="35" y="246" width="35.1667" height="35.1667" stroke="#FFFC54"/>
<rect x="70" y="246" width="35.1667" height="35.1667" stroke="#FFFC54"/>
<rect x="105" y="246" width="35.1667" height="35.1667" stroke="#FFFC54"/>
<rect x="141" y="246" width="35.1667" height="35.1667" stroke="#FFFC54"/>
<rect x="176" y="246" width="35.1667" height="35.1667" stroke="#FFFC54"/>
<rect x="211" y="246" width="35.1667" height="35.1667" stroke="#FFFC54"/>
<rect x="246" y="246" width="35.1667" height="35.1667" stroke="#FFFC54"/>
<rect x="281" y="246" width="35.1667" height="35.1667" stroke="#FFFC54"/>
<rect x="316" y="246" width="35.1667" height="35.1667" stroke="#FFFC54"/>
<rect x="352" y="246" width="35.1667" height="35.1667" stroke="#FFFC54"/>
<rect x="387" y="246" width="35.1667" height="35.1667" stroke="#FFFC54"/>
<rect x="35" y="281" width="35.1667" height="35.1667" stroke="#FFFC54"/>
<rect x="70" y="281" width="35.1667" height="35.1667" stroke="#FFFC54"/>
<rect x="105" y="281" width="35.1667" height="35.1667" stroke="#FFFC54"/>
<rect x="141" y="281" width="35.1667" height="35.1667" stroke="#FFFC54"/>
<rect x="176" y="281" width="35.1667" height="35.1667" stroke="#FFFC54"/>
<rect x="211" y="281" width="35.1667" height="35.1667" stroke="#FFFC54"/>
<rect x="246" y="281" width="35.1667" height="35.1667" stroke="#FFFC54"/>
<rect x="281" y="281" width="35.1667" height="35.1667" stroke="#FFFC54"/>
<rect x="316" y="281" width="35.1667" height="35.1667" stroke="#FFFC54"/>
<rect x="352" y="281" width="35.1667" height="35.1667" stroke="#FFFC54"/>
<rect x="387" y="281" width="35.1667" height="35.1667" stroke="#FFFC54"/>
<rect x="35" y="316" width="35.1667" height="35.1667" stroke="#FFFC54"/>
<rect x="70" y="316" width="35.1667" height="35.1667" stroke="#FFFC54"/>
<rect x="105" y="316" width="35.1667" height="35.1667" stroke="#FFFC54"/>
<rect x="141" y="316" width="35.1667" height="35.1667" stroke="#FFFC54"/>
<rect x="176" y="316" width="35.1667" height="35.1667" stroke="#FFFC54"/>
<rect x="211" y="316" width="35.1667" height="35.1667" stroke="#FFFC54"/>
<rect x="246" y="316" width="35.1667" height="35.1667" stroke="#FFFC54"/>
<rect x="281" y="316" width="35.1667" height="35.1667" stroke="#FFFC54"/>
<rect x="316" y="316" width="35.1667" height="35.1667" stroke="#FFFC54"/>
<rect x="352" y="316" width="35.1667" height="35.1667" stroke="#FFFC54"/>
<rect x="387" y="316" width="35.1667" height="35.1667" stroke="#FFFC54"/>
<rect x="35" y="351" width="35.1667" height="35.1667" stroke="#FFFC54"/>
<rect x="70" y="351" width="35.1667" height="35.1667" stroke="#FFFC54"/>
<rect x="105" y="351" width="35.1667" height="35.1667" stroke="#FFFC54"/>
<rect x="141" y="351" width="35.1667" height="35.1667" stroke="#FFFC54"/>
<rect x="176" y="351" width="35.1667" height="35.1667" stroke="#FFFC54"/>
<rect x="211" y="351" width="35.1667" height="35.1667" stroke="#FFFC54"/>
<rect x="246" y="351" width="35.1667" height="35.1667" stroke="#FFFC54"/>
<rect x="281" y="351" width="35.1667" height="35.1667" stroke="#FFFC54"/>
<rect x="316" y="351" width="35.1667" height="35.1667" stroke="#FFFC54"/>
<rect x="352" y="351" width="35.1667" height="35.1667" stroke="#FFFC54"/>
<rect x="387" y="351" width="35.1667" height="35.1667" stroke="#FFFC54"/>
<rect x="35" y="387" width="35.1667" height="35.1667" stroke="#FFFC54"/>
<rect x="70" y="387" width="35.1667" height="35.1667" stroke="#FFFC54"/>
<rect x="105" y="387" width="35.1667" height="35.1667" stroke="#FFFC54"/>
<rect x="141" y="387" width="35.1667" height="35.1667" stroke="#FFFC54"/>
<rect x="176" y="387" width="35.1667" height="35.1667" stroke="#FFFC54"/>
<rect x="211" y="387" width="35.1667" height="35.1667" stroke="#FFFC54"/>
<rect x="246" y="387" width="35.1667" height="35.1667" stroke="#FFFC54"/>
<rect x="281" y="387" width="35.1667" height="35.1667" stroke="#FFFC54"/>
<rect x="316" y="387" width="35.1667" height="35.1667" stroke="#FFFC54"/>
<rect x="352" y="387" width="35.1667" height="35.1667" stroke="#FFFC54"/>
<rect x="387" y="387" width="35.1667" height="35.1667" stroke="#FFFC54"/>
<path fill-rule="evenodd" clip-rule="evenodd" d="M50.7542 14.6414C50.6709 14.6969 50.6261 14.7685 50.6199 14.8561C50.6194 14.8632 50.6191 14.8704 50.6191 14.8778V15.1253C50.6191 15.2529 50.6829 15.2754 50.8104 15.1928L52.2621 14.3714V20.8645C52.2621 20.9546 52.2996 20.9996 52.3747 20.9996H52.701C52.7835 20.9996 52.8248 20.9546 52.8248 20.8645V13.8987C52.8248 13.8087 52.7835 13.7637 52.701 13.7637H52.4084C52.3259 13.7637 52.2471 13.7899 52.1721 13.8424L50.7542 14.6414Z" fill="#FFFC54"/>
<path fill-rule="evenodd" clip-rule="evenodd" d="M84.5972 19.7786C84.6101 19.4825 84.7377 19.2273 84.9799 19.0131C84.9808 19.0122 84.9818 19.0114 84.9827 19.0105C85.01 18.9866 85.0386 18.9631 85.0687 18.9402L87.3081 17.2184C87.7807 16.8583 88.0171 16.3857 88.0171 15.8005V15.3279C88.0171 14.8327 87.8745 14.4501 87.5894 14.18C87.3119 13.9025 86.9292 13.7637 86.4416 13.7637H85.5301C85.0424 13.7637 84.6561 13.9025 84.371 14.18C84.0859 14.4576 83.9434 14.8402 83.9434 15.3279V15.8455C83.9434 15.9356 83.9846 15.9806 84.0671 15.9806H84.3935C84.476 15.9806 84.5173 15.9356 84.5173 15.8455V15.3391C84.5173 15.3354 84.5173 15.3316 84.5173 15.3279C84.519 14.9975 84.5957 14.7438 84.7473 14.5665C84.9157 14.3697 85.1767 14.2673 85.5301 14.2593C85.5449 14.259 85.5599 14.2588 85.5751 14.2588H86.3853C86.4043 14.2588 86.4231 14.2591 86.4416 14.2596C86.7872 14.2692 87.0443 14.3681 87.2131 14.5564C87.2163 14.56 87.2194 14.5636 87.2226 14.5673C87.3754 14.7445 87.4527 14.998 87.4544 15.3279C87.4544 15.3316 87.4544 15.3354 87.4544 15.3391V15.778C87.4544 15.7855 87.4543 15.793 87.4542 15.8005C87.4487 16.1999 87.2957 16.5357 86.9953 16.8079C86.9947 16.8084 86.9942 16.8089 86.9936 16.8094C86.958 16.8416 86.9203 16.8729 86.8805 16.9034L84.6636 18.5914C84.2296 18.9168 84.0048 19.3294 83.9892 19.8292C83.9887 19.8479 83.9884 19.8666 83.9884 19.8855V20.8758C83.9884 20.9583 84.0334 20.9996 84.1234 20.9996H87.927C88.0096 20.9996 88.0508 20.9583 88.0508 20.8758V20.6057C88.0508 20.5232 88.0096 20.4819 87.927 20.4819H84.5961V19.8292C84.5961 19.8122 84.5964 19.7953 84.5972 19.7786Z" fill="#FFFC54"/>
<path fill-rule="evenodd" clip-rule="evenodd" d="M120.481 15.3391C120.481 15.3354 120.481 15.3316 120.481 15.3279C120.482 14.9946 120.561 14.7392 120.717 14.5618C120.888 14.3679 121.15 14.2671 121.505 14.2593C121.52 14.259 121.535 14.2588 121.55 14.2588H122.416C122.431 14.2588 122.446 14.259 122.461 14.2593C122.816 14.2671 123.078 14.3679 123.249 14.5618C123.405 14.7392 123.484 14.9946 123.485 15.3279C123.485 15.3316 123.485 15.3354 123.485 15.3391V16.0368C123.485 16.0406 123.485 16.0444 123.485 16.0481C123.484 16.3088 123.434 16.5213 123.337 16.6856C123.317 16.7177 123.297 16.7479 123.274 16.7762C123.208 16.8588 123.126 16.9259 123.029 16.9774C123.022 16.981 123.015 16.9846 123.008 16.9881C122.85 17.0666 122.653 17.1059 122.416 17.1059H121.741C121.658 17.1059 121.617 17.1472 121.617 17.2297V17.4773C121.617 17.5598 121.658 17.6011 121.741 17.6011H122.416C122.655 17.6011 122.853 17.6414 123.012 17.7219C123.017 17.7247 123.023 17.7275 123.028 17.7304C123.132 17.7859 123.218 17.8594 123.287 17.9507C123.304 17.9733 123.319 17.997 123.334 18.0218C123.434 18.1884 123.484 18.4045 123.485 18.6701C123.485 18.6739 123.485 18.6776 123.485 18.6814V19.4241C123.485 19.4279 123.485 19.4316 123.485 19.4354C123.484 19.7687 123.405 20.0241 123.249 20.2015C123.078 20.3953 122.816 20.4961 122.461 20.5039C122.446 20.5043 122.431 20.5044 122.416 20.5044H121.55C121.535 20.5044 121.52 20.5043 121.505 20.5039C121.15 20.4961 120.888 20.3953 120.717 20.2015C120.561 20.0241 120.482 19.7687 120.481 19.4354C120.481 19.4316 120.481 19.4279 120.481 19.4241V18.929C120.481 18.8389 120.443 18.7939 120.368 18.7939H120.042C119.959 18.7939 119.918 18.8389 119.918 18.929V19.4354C119.918 19.923 120.061 20.3056 120.346 20.5832C120.631 20.8608 121.017 20.9996 121.505 20.9996H122.461C122.949 20.9996 123.335 20.8608 123.62 20.5832C123.905 20.3056 124.048 19.923 124.048 19.4354V18.6701C124.048 18.3193 123.971 18.0343 123.817 17.8153C123.733 17.6961 123.626 17.5965 123.497 17.5163C123.386 17.4477 123.258 17.3935 123.114 17.3535C123.256 17.3123 123.383 17.2577 123.493 17.1897C123.624 17.1085 123.732 17.0081 123.817 16.8885C123.971 16.6715 124.048 16.3913 124.048 16.0481V15.3279C124.048 14.8402 123.905 14.4576 123.62 14.18C123.335 13.9025 122.949 13.7637 122.461 13.7637H121.505C121.017 13.7637 120.631 13.9025 120.346 14.18C120.061 14.4576 119.918 14.8402 119.918 15.3279V15.7443C119.918 15.8268 119.959 15.868 120.042 15.868H120.368C120.443 15.868 120.481 15.8268 120.481 15.7443V15.3391Z" fill="#FFFC54"/>
<path fill-rule="evenodd" clip-rule="evenodd" d="M158.577 19.019V13.9325C158.577 13.8199 158.525 13.7637 158.42 13.7637H157.891C157.778 13.7637 157.688 13.8199 157.621 13.9325L154.673 18.9064C154.62 19.0115 154.594 19.0978 154.594 19.1653V19.3678C154.594 19.4729 154.65 19.5254 154.763 19.5254H158.026V20.8645C158.026 20.9546 158.067 20.9996 158.15 20.9996H158.454C158.536 20.9996 158.577 20.9546 158.577 20.8645V19.5254H159.421C159.504 19.5254 159.545 19.4841 159.545 19.4016V19.1315C159.545 19.0565 159.504 19.019 159.421 19.019H158.577ZM158.026 19.019V14.2138L155.19 19.019H158.026Z" fill="#FFFC54"/>
<path fill-rule="evenodd" clip-rule="evenodd" d="M190.603 14.2926V16.9934C190.637 16.8992 190.684 16.8171 190.743 16.7471C190.772 16.7132 190.804 16.6821 190.838 16.6538C190.959 16.5548 191.115 16.4905 191.306 16.4609C191.358 16.4529 191.412 16.4474 191.469 16.4445C191.502 16.4428 191.536 16.442 191.571 16.442H192.516C193.003 16.442 193.386 16.577 193.664 16.8471C193.941 17.1172 194.08 17.4998 194.08 17.9949V19.4016C194.08 19.8967 193.937 20.2869 193.652 20.5719C193.644 20.5806 193.635 20.5892 193.626 20.5976C193.626 20.5975 193.626 20.5977 193.626 20.5976C193.344 20.8654 192.966 20.9996 192.493 20.9996H191.593C191.113 20.9996 190.73 20.8612 190.447 20.5845C190.442 20.5803 190.438 20.5761 190.434 20.5719C190.156 20.2869 190.018 19.8967 190.018 19.4016V19.0077C190.018 18.9177 190.055 18.8727 190.13 18.8727H190.456C190.539 18.8727 190.58 18.9177 190.58 19.0077V19.3903C190.58 19.3941 190.58 19.3978 190.58 19.4016C190.582 19.7312 190.663 19.9913 190.824 20.1819C190.826 20.1838 190.827 20.1857 190.829 20.1876C190.836 20.1958 190.843 20.2039 190.85 20.2118C191.022 20.3983 191.27 20.4957 191.593 20.5039C191.608 20.5042 191.623 20.5044 191.638 20.5044H192.448C192.463 20.5044 192.478 20.5042 192.493 20.5039C192.816 20.496 193.064 20.4024 193.236 20.2231C193.247 20.2116 193.258 20.1998 193.268 20.1877C193.432 19.9972 193.516 19.7351 193.517 19.4016C193.517 19.3978 193.517 19.3941 193.517 19.3903V18.0399C193.517 18.0248 193.517 18.0098 193.517 17.9949C193.51 17.6691 193.432 17.4178 193.281 17.2409C193.114 17.0455 192.859 16.941 192.516 16.9274C192.49 16.9264 192.464 16.9259 192.437 16.9259H191.469C191.412 16.9259 191.357 16.9289 191.306 16.935C191.218 16.9455 191.139 16.9649 191.069 16.9934C191.052 17.0003 191.035 17.0078 191.019 17.0159C190.967 17.0418 190.923 17.0691 190.887 17.0977C190.862 17.1171 190.841 17.1371 190.824 17.1577C190.807 17.1774 190.793 17.1976 190.783 17.2184C190.77 17.244 190.756 17.2677 190.743 17.2898C190.741 17.2933 190.739 17.2968 190.737 17.3003C190.72 17.3285 190.703 17.3538 190.687 17.376C190.626 17.4585 190.567 17.4998 190.513 17.4998H190.153C190.078 17.4998 190.04 17.4585 190.04 17.376V13.8987C190.04 13.8087 190.078 13.7637 190.153 13.7637H193.81C193.9 13.7637 193.945 13.8049 193.945 13.8875V14.1688C193.945 14.2513 193.9 14.2926 193.81 14.2926H190.603Z" fill="#FFFC54"/>
<path fill-rule="evenodd" clip-rule="evenodd" d="M224.855 19.4016C224.855 19.8967 224.998 20.2869 225.283 20.5719C225.287 20.5761 225.292 20.5803 225.296 20.5845C225.298 20.587 225.301 20.5895 225.304 20.5919C225.587 20.8637 225.966 20.9996 226.442 20.9996H227.489C227.965 20.9996 228.344 20.8637 228.627 20.5919C228.63 20.5895 228.633 20.587 228.635 20.5845C228.639 20.5803 228.644 20.5761 228.648 20.5719C228.933 20.2869 229.075 19.8967 229.075 19.4016V18.2763C229.075 17.7886 228.933 17.4022 228.648 17.1172C228.646 17.1149 228.643 17.1127 228.641 17.1104C228.638 17.1079 228.636 17.1053 228.633 17.1028C228.35 16.8273 227.968 16.6895 227.489 16.6895H225.429V15.3842C225.429 15.3766 225.429 15.3691 225.43 15.3616C225.433 15.0272 225.516 14.7686 225.678 14.5861C225.685 14.5781 225.692 14.5703 225.699 14.5627C225.872 14.3762 226.119 14.2788 226.442 14.2706C226.457 14.2703 226.472 14.2701 226.487 14.2701H228.58C228.663 14.2701 228.704 14.2326 228.704 14.1575V13.8875C228.704 13.8049 228.663 13.7637 228.58 13.7637H226.442C225.963 13.7637 225.581 13.9014 225.298 14.1769C225.295 14.1795 225.292 14.182 225.29 14.1846C225.288 14.1868 225.285 14.189 225.283 14.1913C224.998 14.4764 224.855 14.8665 224.855 15.3616V19.4016ZM225.429 17.1959V19.3791C225.429 19.3866 225.429 19.3941 225.43 19.4016C225.433 19.7329 225.514 19.993 225.673 20.1819C225.682 20.1921 225.69 20.2021 225.699 20.2118C225.872 20.3911 226.119 20.4847 226.442 20.4926C226.457 20.493 226.472 20.4932 226.487 20.4932H227.444C227.459 20.4932 227.474 20.493 227.489 20.4926C227.812 20.4847 228.059 20.3911 228.231 20.2118C228.24 20.2021 228.249 20.1921 228.258 20.1819C228.417 19.993 228.498 19.7329 228.501 19.4016C228.502 19.3941 228.502 19.3866 228.502 19.3791V18.2988C228.502 18.2912 228.502 18.2837 228.501 18.2763C228.498 17.9489 228.415 17.6941 228.253 17.5119C228.246 17.504 228.239 17.4962 228.231 17.4885C228.059 17.302 227.812 17.2047 227.489 17.1965C227.474 17.1961 227.459 17.1959 227.444 17.1959H225.429Z" fill="#FFFC54"/>
<path fill-rule="evenodd" clip-rule="evenodd" d="M262.342 20.8308C262.289 20.9433 262.316 20.9996 262.421 20.9996H262.736C262.752 20.9996 262.768 20.9986 262.782 20.9965C262.861 20.9856 262.913 20.9454 262.938 20.8758L265.358 14.4276C265.395 14.3301 265.414 14.2438 265.414 14.1688V13.8875C265.414 13.8049 265.373 13.7637 265.29 13.7637H261.667C261.584 13.7637 261.543 13.8049 261.543 13.8875V14.1688C261.543 14.2438 261.584 14.2813 261.667 14.2813H264.806L262.342 20.8308Z" fill="#FFFC54"/>
<path fill-rule="evenodd" clip-rule="evenodd" d="M295.042 17.8346C294.9 18.0578 294.827 18.3401 294.824 18.6814C294.824 18.6889 294.824 18.6964 294.824 18.7039V19.4466C294.824 19.9342 294.967 20.3169 295.252 20.5944C295.537 20.8645 295.923 20.9996 296.411 20.9996H297.593C298.08 20.9996 298.463 20.8645 298.74 20.5944C299.025 20.3169 299.168 19.9342 299.168 19.4466V18.7039C299.168 18.6964 299.168 18.6889 299.168 18.6814C299.165 18.3417 299.096 18.0611 298.96 17.8395C298.877 17.7048 298.77 17.5919 298.639 17.5008C298.555 17.4428 298.461 17.3938 298.358 17.3535C298.464 17.3135 298.561 17.264 298.646 17.205C298.658 17.1971 298.669 17.189 298.68 17.1807C298.683 17.1787 298.685 17.1766 298.688 17.1746C298.799 17.091 298.89 16.9901 298.962 16.8721C299.098 16.6505 299.167 16.3684 299.168 16.0256C299.168 16.0218 299.168 16.0181 299.168 16.0143V15.3166C299.168 14.829 299.025 14.4501 298.74 14.18C298.463 13.9025 298.08 13.7637 297.593 13.7637H296.411C295.923 13.7637 295.537 13.9025 295.252 14.18C294.967 14.4501 294.824 14.829 294.824 15.3166V16.0143C294.824 16.0181 294.824 16.0218 294.824 16.0256C294.826 16.3672 294.898 16.6498 295.041 16.8733C295.124 17.0042 295.232 17.1149 295.364 17.2054C295.448 17.2629 295.542 17.3123 295.646 17.3535C295.539 17.3957 295.443 17.4467 295.358 17.5065C295.229 17.5961 295.124 17.7055 295.042 17.8346ZM295.838 17.7374C295.827 17.7435 295.816 17.7499 295.806 17.7564C295.534 17.926 295.398 18.2343 295.398 18.6814V19.4128C295.398 19.4242 295.398 19.4354 295.398 19.4466C295.403 19.7698 295.482 20.0181 295.633 20.1916C295.635 20.1935 295.637 20.1954 295.639 20.1973C295.807 20.3864 296.065 20.4849 296.411 20.4927C296.426 20.493 296.441 20.4932 296.456 20.4932H297.548C297.563 20.4932 297.578 20.493 297.593 20.4927C297.936 20.4851 298.193 20.3902 298.364 20.2079C298.364 20.2079 298.364 20.2078 298.364 20.2079C298.527 20.0338 298.611 19.7799 298.616 19.4466C298.617 19.4354 298.617 19.4242 298.617 19.4128V18.6814C298.617 18.2327 298.478 17.9238 298.202 17.7547C298.19 17.7474 298.178 17.7405 298.166 17.7337C298.003 17.6453 297.797 17.6011 297.548 17.6011H296.456C296.205 17.6011 295.999 17.6465 295.838 17.7374ZM297.548 17.1172C297.792 17.1172 297.995 17.0702 298.156 16.9763C298.173 16.9666 298.189 16.9564 298.205 16.9457C298.252 16.9136 298.296 16.877 298.335 16.8358C298.523 16.6483 298.617 16.3782 298.617 16.0256V15.3504C298.617 15.339 298.617 15.3278 298.616 15.3166C298.611 14.9903 298.53 14.7402 298.374 14.5665C298.371 14.563 298.368 14.5594 298.364 14.5559C298.194 14.3732 297.937 14.2781 297.593 14.2706C297.578 14.2702 297.563 14.2701 297.548 14.2701H296.456C296.441 14.2701 296.426 14.2702 296.411 14.2706C296.061 14.2784 295.802 14.3788 295.633 14.5718C295.632 14.5737 295.63 14.5756 295.628 14.5775C295.48 14.7507 295.403 14.9971 295.398 15.3166C295.398 15.3278 295.398 15.339 295.398 15.3504V16.0256C295.398 16.4756 295.533 16.7865 295.803 16.9582C295.815 16.9658 295.827 16.973 295.839 16.98C296 17.0714 296.206 17.1172 296.456 17.1172H297.548Z" fill="#FFFC54"/>
<path fill-rule="evenodd" clip-rule="evenodd" d="M334.48 18.0962H332.421C331.945 18.0962 331.565 17.9603 331.282 17.6886C331.279 17.6861 331.277 17.6836 331.274 17.6811C331.27 17.677 331.266 17.6728 331.262 17.6686C330.977 17.3835 330.834 16.9934 330.834 16.4982V15.3616C330.834 14.8665 330.977 14.4764 331.262 14.1913C331.264 14.189 331.266 14.1868 331.268 14.1846C331.271 14.182 331.274 14.1795 331.276 14.1769C331.56 13.9014 331.941 13.7637 332.421 13.7637H333.467C333.942 13.7637 334.321 13.8988 334.604 14.169C334.609 14.1742 334.614 14.1793 334.62 14.1846C334.622 14.1868 334.624 14.189 334.626 14.1913C334.911 14.4764 335.054 14.8665 335.054 15.3616V19.4016C335.054 19.8967 334.911 20.2869 334.626 20.5719C334.622 20.5761 334.618 20.5803 334.614 20.5845C334.611 20.587 334.609 20.5895 334.606 20.5919C334.323 20.8637 333.943 20.9996 333.467 20.9996H331.318C331.228 20.9996 331.183 20.9583 331.183 20.8758V20.6057C331.183 20.5307 331.228 20.4932 331.318 20.4932H333.422C333.437 20.4932 333.452 20.493 333.467 20.4926C333.79 20.4847 334.038 20.3911 334.21 20.2118C334.219 20.2021 334.228 20.1921 334.236 20.1819C334.395 19.993 334.476 19.7329 334.48 19.4016C334.48 19.3941 334.48 19.3866 334.48 19.3791V18.0962ZM334.21 14.5627C334.038 14.3762 333.79 14.2788 333.467 14.2706C333.452 14.2703 333.437 14.2701 333.422 14.2701H332.466C332.451 14.2701 332.436 14.2703 332.421 14.2706C332.098 14.2788 331.85 14.3762 331.678 14.5627C331.671 14.5703 331.663 14.5781 331.656 14.5861C331.494 14.7686 331.412 15.0272 331.408 15.3616C331.408 15.3691 331.408 15.3766 331.408 15.3842V16.4757C331.408 16.4833 331.408 16.4908 331.408 16.4982C331.412 16.8296 331.493 17.0897 331.652 17.2786C331.66 17.2887 331.669 17.2987 331.678 17.3085C331.85 17.4878 332.098 17.5814 332.421 17.5893C332.436 17.5896 332.451 17.5898 332.466 17.5898H334.491V15.3842C334.491 15.3766 334.491 15.3691 334.491 15.3616C334.488 15.0269 334.401 14.7682 334.232 14.5856C334.225 14.5778 334.217 14.5702 334.21 14.5627Z" fill="#FFFC54"/>
<path fill-rule="evenodd" clip-rule="evenodd" d="M372.49 14.1823C372.213 13.9032 371.833 13.7637 371.351 13.7637H370.225C369.746 13.7637 369.365 13.9014 369.081 14.1769C369.078 14.1795 369.076 14.182 369.073 14.1846C369.071 14.1868 369.069 14.189 369.066 14.1913C368.781 14.4764 368.639 14.8665 368.639 15.3616V19.4016C368.639 19.8967 368.781 20.2869 369.066 20.5719C369.071 20.5761 369.075 20.5803 369.079 20.5845C369.082 20.587 369.084 20.5895 369.087 20.5919C369.37 20.8637 369.749 20.9996 370.225 20.9996H371.351C371.83 20.9996 372.208 20.8619 372.484 20.5867C372.486 20.5842 372.489 20.5817 372.491 20.5792C372.494 20.5768 372.496 20.5744 372.499 20.5719C372.784 20.2869 372.926 19.8967 372.926 19.4016V15.3616C372.926 14.8665 372.784 14.4764 372.499 14.1913C372.498 14.1908 372.498 14.1904 372.497 14.1899C372.495 14.1874 372.492 14.1848 372.49 14.1823ZM369.483 14.5627C369.655 14.3762 369.902 14.2788 370.225 14.2706C370.24 14.2703 370.255 14.2701 370.27 14.2701H371.306C371.321 14.2701 371.336 14.2703 371.351 14.2706C371.674 14.2788 371.921 14.3762 372.093 14.5627C372.097 14.5666 372.101 14.5707 372.105 14.5747C372.106 14.5765 372.108 14.5783 372.11 14.5801C372.275 14.763 372.36 15.0235 372.363 15.3616C372.363 15.3691 372.364 15.3766 372.364 15.3842V19.3791C372.364 19.3866 372.363 19.3941 372.363 19.4016C372.36 19.7365 372.277 19.9986 372.115 20.188C372.113 20.1898 372.111 20.1917 372.11 20.1935C372.104 20.1997 372.099 20.2058 372.093 20.2118C371.921 20.3911 371.674 20.4847 371.351 20.4926C371.336 20.493 371.321 20.4932 371.306 20.4932H370.27C370.255 20.4932 370.24 20.493 370.225 20.4926C369.902 20.4847 369.655 20.3911 369.483 20.2118C369.474 20.2021 369.465 20.1921 369.456 20.1819C369.297 19.993 369.216 19.7329 369.213 19.4016C369.213 19.3941 369.213 19.3866 369.213 19.3791V15.3842C369.213 15.3766 369.213 15.3691 369.213 15.3616C369.216 15.0272 369.299 14.7686 369.461 14.5861C369.468 14.5781 369.475 14.5703 369.483 14.5627Z" fill="#FFFC54"/>
<path fill-rule="evenodd" clip-rule="evenodd" d="M364.864 14.6414C364.78 14.6969 364.736 14.7685 364.729 14.8561C364.729 14.8632 364.729 14.8704 364.729 14.8778V15.1253C364.729 15.2529 364.792 15.2754 364.92 15.1928L366.372 14.3714V20.8645C366.372 20.9546 366.409 20.9996 366.484 20.9996H366.81C366.893 20.9996 366.934 20.9546 366.934 20.8645V13.8987C366.934 13.8087 366.893 13.7637 366.81 13.7637H366.518C366.435 13.7637 366.356 13.7899 366.281 13.8424L364.864 14.6414Z" fill="#FFFC54"/>
<path fill-rule="evenodd" clip-rule="evenodd" d="M404.541 14.6414C404.458 14.6969 404.413 14.7685 404.407 14.8561C404.407 14.8632 404.406 14.8704 404.406 14.8778V15.1253C404.406 15.2529 404.47 15.2754 404.598 15.1928L406.049 14.3714V20.8645C406.049 20.9546 406.087 20.9996 406.162 20.9996H406.488C406.571 20.9996 406.612 20.9546 406.612 20.8645V13.8987C406.612 13.8087 406.571 13.7637 406.488 13.7637H406.196C406.113 13.7637 406.034 13.7899 405.959 13.8424L404.541 14.6414Z" fill="#FFFC54"/>
<path fill-rule="evenodd" clip-rule="evenodd" d="M400.969 14.6414C400.886 14.6969 400.841 14.7685 400.835 14.8561C400.834 14.8632 400.834 14.8704 400.834 14.8778V15.1253C400.834 15.2529 400.898 15.2754 401.025 15.1928L402.477 14.3714V20.8645C402.477 20.9546 402.514 20.9996 402.59 20.9996H402.916C402.998 20.9996 403.04 20.9546 403.04 20.8645V13.8987C403.04 13.8087 402.998 13.7637 402.916 13.7637H402.623C402.541 13.7637 402.462 13.7899 402.387 13.8424L400.969 14.6414Z" fill="#FFFC54"/>
<path fill-rule="evenodd" clip-rule="evenodd" d="M14.7542 48.6414C14.6709 48.6969 14.6261 48.7685 14.6199 48.8561C14.6194 48.8632 14.6191 48.8704 14.6191 48.8778V49.1253C14.6191 49.2529 14.6829 49.2754 14.8104 49.1928L16.2621 48.3714V54.8645C16.2621 54.9546 16.2996 54.9996 16.3747 54.9996H16.701C16.7835 54.9996 16.8248 54.9546 16.8248 54.8645V47.8987C16.8248 47.8087 16.7835 47.7637 16.701 47.7637H16.4084C16.3259 47.7637 16.2471 47.7899 16.1721 47.8424L14.7542 48.6414Z" fill="#FFFC54"/>
<path fill-rule="evenodd" clip-rule="evenodd" d="M13.5972 88.7786C13.6101 88.4825 13.7377 88.2273 13.9799 88.0131C13.9808 88.0122 13.9818 88.0114 13.9827 88.0105C14.01 87.9866 14.0386 87.9631 14.0687 87.9402L16.3081 86.2184C16.7807 85.8583 17.0171 85.3857 17.0171 84.8005V84.3279C17.0171 83.8327 16.8745 83.4501 16.5894 83.18C16.3119 82.9025 15.9292 82.7637 15.4416 82.7637H14.5301C14.0424 82.7637 13.6561 82.9025 13.371 83.18C13.0859 83.4576 12.9434 83.8402 12.9434 84.3279V84.8455C12.9434 84.9356 12.9846 84.9806 13.0671 84.9806H13.3935C13.476 84.9806 13.5173 84.9356 13.5173 84.8455V84.3391C13.5173 84.3354 13.5173 84.3316 13.5173 84.3279C13.519 83.9975 13.5957 83.7438 13.7473 83.5665C13.9157 83.3697 14.1767 83.2673 14.5301 83.2593C14.5449 83.259 14.5599 83.2588 14.5751 83.2588H15.3853C15.4043 83.2588 15.4231 83.2591 15.4416 83.2596C15.7872 83.2692 16.0443 83.3681 16.2131 83.5564C16.2163 83.56 16.2194 83.5636 16.2226 83.5673C16.3754 83.7445 16.4527 83.998 16.4544 84.3279C16.4544 84.3316 16.4544 84.3354 16.4544 84.3391V84.778C16.4544 84.7855 16.4543 84.793 16.4542 84.8005C16.4487 85.1999 16.2957 85.5357 15.9953 85.8079C15.9947 85.8084 15.9942 85.8089 15.9936 85.8094C15.958 85.8416 15.9203 85.8729 15.8805 85.9034L13.6636 87.5914C13.2296 87.9168 13.0048 88.3294 12.9892 88.8292C12.9887 88.8479 12.9884 88.8666 12.9884 88.8855V89.8758C12.9884 89.9583 13.0334 89.9996 13.1234 89.9996H16.927C17.0096 89.9996 17.0508 89.9583 17.0508 89.8758V89.6057C17.0508 89.5232 17.0096 89.4819 16.927 89.4819H13.5961V88.8292C13.5961 88.8122 13.5964 88.7953 13.5972 88.7786Z" fill="#FFFC54"/>
<path fill-rule="evenodd" clip-rule="evenodd" d="M13.4806 119.339C13.4806 119.335 13.4806 119.332 13.4807 119.328C13.4824 118.995 13.5613 118.739 13.7173 118.562C13.8877 118.368 14.1502 118.267 14.5047 118.259C14.5195 118.259 14.5345 118.259 14.5497 118.259H15.4162C15.4314 118.259 15.4464 118.259 15.4612 118.259C15.8158 118.267 16.0782 118.368 16.2487 118.562C16.4047 118.739 16.4835 118.995 16.4852 119.328C16.4853 119.332 16.4853 119.335 16.4853 119.339V120.037C16.4853 120.041 16.4853 120.044 16.4852 120.048C16.4839 120.309 16.4343 120.521 16.3365 120.686C16.3175 120.718 16.2966 120.748 16.2739 120.776C16.2078 120.859 16.1261 120.926 16.029 120.977C16.0221 120.981 16.0152 120.985 16.0083 120.988C15.8502 121.067 15.6528 121.106 15.4162 121.106H14.741C14.6585 121.106 14.6172 121.147 14.6172 121.23V121.477C14.6172 121.56 14.6585 121.601 14.741 121.601H15.4162C15.6546 121.601 15.8532 121.641 16.0118 121.722C16.0173 121.725 16.0226 121.728 16.028 121.73C16.1319 121.786 16.2181 121.859 16.2866 121.951C16.3036 121.973 16.3194 121.997 16.3342 122.022C16.4335 122.188 16.4839 122.405 16.4852 122.67C16.4853 122.674 16.4853 122.678 16.4853 122.681V123.424C16.4853 123.428 16.4853 123.432 16.4852 123.435C16.4835 123.769 16.4047 124.024 16.2487 124.201C16.0782 124.395 15.8158 124.496 15.4612 124.504C15.4464 124.504 15.4314 124.504 15.4162 124.504H14.5497C14.5345 124.504 14.5195 124.504 14.5047 124.504C14.1502 124.496 13.8877 124.395 13.7173 124.201C13.5613 124.024 13.4824 123.769 13.4807 123.435C13.4806 123.432 13.4806 123.428 13.4806 123.424V122.929C13.4806 122.839 13.4431 122.794 13.3681 122.794H13.0418C12.9592 122.794 12.918 122.839 12.918 122.929V123.435C12.918 123.923 13.0605 124.306 13.3456 124.583C13.6307 124.861 14.017 125 14.5047 125H15.4612C15.9489 125 16.3352 124.861 16.6203 124.583C16.9054 124.306 17.0479 123.923 17.0479 123.435V122.67C17.0479 122.319 16.9709 122.034 16.8167 121.815C16.7329 121.696 16.6261 121.596 16.4966 121.516C16.3858 121.448 16.2582 121.393 16.1139 121.353C16.2565 121.312 16.3827 121.258 16.4926 121.19C16.6241 121.108 16.7322 121.008 16.817 120.889C16.971 120.671 17.0479 120.391 17.0479 120.048V119.328C17.0479 118.84 16.9054 118.458 16.6203 118.18C16.3352 117.902 15.9489 117.764 15.4612 117.764H14.5047C14.017 117.764 13.6307 117.902 13.3456 118.18C13.0605 118.458 12.918 118.84 12.918 119.328V119.744C12.918 119.827 12.9592 119.868 13.0418 119.868H13.3681C13.4431 119.868 13.4806 119.827 13.4806 119.744V119.339Z" fill="#FFFC54"/>
<path fill-rule="evenodd" clip-rule="evenodd" d="M17.5794 158.019V152.932C17.5794 152.82 17.5269 152.764 17.4218 152.764H16.8929C16.7804 152.764 16.6904 152.82 16.6228 152.932L13.6745 157.906C13.622 158.011 13.5957 158.098 13.5957 158.165V158.368C13.5957 158.473 13.652 158.525 13.7645 158.525H17.028V159.865C17.028 159.955 17.0692 160 17.1518 160H17.4556C17.5381 160 17.5794 159.955 17.5794 159.865V158.525H18.4234C18.5059 158.525 18.5472 158.484 18.5472 158.402V158.132C18.5472 158.056 18.5059 158.019 18.4234 158.019H17.5794ZM17.028 158.019V153.214L14.1921 158.019H17.028Z" fill="#FFFC54"/>
<path fill-rule="evenodd" clip-rule="evenodd" d="M13.6028 189.293V191.993C13.6373 191.899 13.6842 191.817 13.7434 191.747C13.7721 191.713 13.8036 191.682 13.8381 191.654C13.9587 191.555 14.1147 191.491 14.3061 191.461C14.3579 191.453 14.4123 191.447 14.4693 191.445C14.5022 191.443 14.5359 191.442 14.5705 191.442H15.5158C16.0035 191.442 16.3861 191.577 16.6637 191.847C16.9412 192.117 17.08 192.5 17.08 192.995V194.402C17.08 194.897 16.9375 195.287 16.6524 195.572C16.6437 195.581 16.635 195.589 16.6261 195.598C16.6262 195.597 16.626 195.598 16.6261 195.598C16.3438 195.865 15.9659 196 15.4933 196H14.593C14.1126 196 13.7305 195.861 13.4466 195.584C13.4424 195.58 13.4382 195.576 13.434 195.572C13.1564 195.287 13.0176 194.897 13.0176 194.402V194.008C13.0176 193.918 13.0551 193.873 13.1301 193.873H13.4565C13.539 193.873 13.5802 193.918 13.5802 194.008V194.39C13.5802 194.394 13.5803 194.398 13.5803 194.402C13.5821 194.731 13.6633 194.991 13.824 195.182C13.8255 195.184 13.8271 195.186 13.8287 195.188C13.8358 195.196 13.843 195.204 13.8503 195.212C14.0225 195.398 14.27 195.496 14.593 195.504C14.6079 195.504 14.6229 195.504 14.6381 195.504H15.4483C15.4635 195.504 15.4785 195.504 15.4933 195.504C15.8163 195.496 16.0639 195.402 16.236 195.223C16.2471 195.212 16.2578 195.2 16.2682 195.188C16.4325 194.997 16.5155 194.735 16.5173 194.402C16.5174 194.398 16.5174 194.394 16.5174 194.39V193.04C16.5174 193.025 16.5172 193.01 16.5169 192.995C16.5103 192.669 16.4315 192.418 16.2805 192.241C16.1137 192.046 15.8588 191.941 15.5158 191.927C15.4901 191.926 15.4638 191.926 15.437 191.926H14.4693C14.4118 191.926 14.3574 191.929 14.3061 191.935C14.2181 191.945 14.139 191.965 14.069 191.993C14.0518 192 14.0352 192.008 14.0191 192.016C13.9674 192.042 13.9233 192.069 13.8868 192.098C13.8622 192.117 13.8411 192.137 13.8235 192.158C13.8068 192.177 13.7932 192.198 13.7828 192.218C13.7695 192.244 13.7564 192.268 13.7434 192.29C13.7413 192.293 13.7392 192.297 13.7372 192.3C13.7201 192.329 13.7034 192.354 13.6868 192.376C13.6255 192.459 13.5675 192.5 13.5127 192.5H13.1526C13.0776 192.5 13.0401 192.459 13.0401 192.376V188.899C13.0401 188.809 13.0776 188.764 13.1526 188.764H16.81C16.9 188.764 16.945 188.805 16.945 188.887V189.169C16.945 189.251 16.9 189.293 16.81 189.293H13.6028Z" fill="#FFFC54"/>
<path fill-rule="evenodd" clip-rule="evenodd" d="M13.8555 229.402C13.8555 229.897 13.998 230.287 14.2831 230.572C14.2873 230.576 14.2915 230.58 14.2958 230.584C14.2984 230.587 14.3009 230.589 14.3035 230.592C14.5865 230.864 14.9661 231 15.4422 231H16.4887C16.9648 231 17.3444 230.864 17.6274 230.592C17.63 230.589 17.6326 230.587 17.6352 230.584C17.6394 230.58 17.6436 230.576 17.6478 230.572C17.9329 230.287 18.0755 229.897 18.0755 229.402V228.276C18.0755 227.789 17.9329 227.402 17.6478 227.117C17.6456 227.115 17.6433 227.113 17.6411 227.11C17.6385 227.108 17.6359 227.105 17.6333 227.103C17.3496 226.827 16.9681 226.69 16.4887 226.69H14.4294V225.384C14.4294 225.377 14.4294 225.369 14.4295 225.362C14.433 225.027 14.5158 224.769 14.6779 224.586C14.6849 224.578 14.6921 224.57 14.6995 224.563C14.8716 224.376 15.1192 224.279 15.4422 224.271C15.457 224.27 15.472 224.27 15.4872 224.27H17.5803C17.6628 224.27 17.7041 224.233 17.7041 224.158V223.887C17.7041 223.805 17.6628 223.764 17.5803 223.764H15.4422C14.9628 223.764 14.5813 223.901 14.2977 224.177C14.2951 224.179 14.2925 224.182 14.2899 224.185C14.2876 224.187 14.2853 224.189 14.2831 224.191C13.998 224.476 13.8555 224.866 13.8555 225.362V229.402ZM14.4294 227.196V229.379C14.4294 229.387 14.4294 229.394 14.4295 229.402C14.433 229.733 14.5142 229.993 14.6731 230.182C14.6817 230.192 14.6905 230.202 14.6995 230.212C14.8716 230.391 15.1192 230.485 15.4422 230.493C15.457 230.493 15.472 230.493 15.4872 230.493H16.4437C16.4589 230.493 16.4739 230.493 16.4887 230.493C16.8118 230.485 17.0593 230.391 17.2315 230.212C17.2405 230.202 17.2493 230.192 17.2578 230.182C17.4167 229.993 17.4979 229.733 17.5014 229.402C17.5015 229.394 17.5015 229.387 17.5015 229.379V228.299C17.5015 228.291 17.5015 228.284 17.5014 228.276C17.4978 227.949 17.415 227.694 17.2531 227.512C17.246 227.504 17.2388 227.496 17.2315 227.489C17.0593 227.302 16.8118 227.205 16.4887 227.197C16.4739 227.196 16.4589 227.196 16.4437 227.196H14.4294Z" fill="#FFFC54"/>
<path fill-rule="evenodd" clip-rule="evenodd" d="M14.342 265.831C14.2894 265.943 14.3157 266 14.4207 266H14.7358C14.7523 266 14.7678 265.999 14.7825 265.997C14.8611 265.986 14.9131 265.945 14.9384 265.876L17.3578 259.428C17.3954 259.33 17.4141 259.244 17.4141 259.169V258.887C17.4141 258.805 17.3729 258.764 17.2903 258.764H13.6668C13.5842 258.764 13.543 258.805 13.543 258.887V259.169C13.543 259.244 13.5842 259.281 13.6668 259.281H16.8064L14.342 265.831Z" fill="#FFFC54"/>
<path fill-rule="evenodd" clip-rule="evenodd" d="M14.0438 297.835C13.9018 298.058 13.8293 298.34 13.8263 298.681C13.8262 298.689 13.8262 298.696 13.8262 298.704V299.447C13.8262 299.934 13.9687 300.317 14.2538 300.594C14.5389 300.865 14.9252 301 15.4129 301H16.5945C17.0821 301 17.4647 300.865 17.7423 300.594C18.0274 300.317 18.17 299.934 18.17 299.447V298.704C18.17 298.696 18.1699 298.689 18.1699 298.681C18.1669 298.342 18.0976 298.061 17.9619 297.84C17.8793 297.705 17.7722 297.592 17.6406 297.501C17.5569 297.443 17.4633 297.394 17.3597 297.353C17.4664 297.313 17.5625 297.264 17.6481 297.205C17.6596 297.197 17.6709 297.189 17.682 297.181C17.6847 297.179 17.6874 297.177 17.6901 297.175C17.8005 297.091 17.8919 296.99 17.9642 296.872C18.0999 296.651 18.1685 296.368 18.1699 296.026C18.17 296.022 18.17 296.018 18.17 296.014V295.317C18.17 294.829 18.0274 294.45 17.7423 294.18C17.4647 293.902 17.0821 293.764 16.5945 293.764H15.4129C14.9252 293.764 14.5389 293.902 14.2538 294.18C13.9687 294.45 13.8262 294.829 13.8262 295.317V296.014C13.8262 296.018 13.8262 296.022 13.8262 296.026C13.8277 296.367 13.8999 296.65 14.0427 296.873C14.1263 297.004 14.2341 297.115 14.3661 297.205C14.4502 297.263 14.544 297.312 14.6477 297.353C14.5414 297.396 14.4454 297.447 14.3597 297.506C14.2312 297.596 14.1259 297.705 14.0438 297.835ZM14.8398 297.737C14.8289 297.744 14.8182 297.75 14.8077 297.756C14.536 297.926 14.4001 298.234 14.4001 298.681V299.413C14.4001 299.424 14.4002 299.435 14.4004 299.447C14.4054 299.77 14.4838 300.018 14.6354 300.192C14.6371 300.194 14.6388 300.195 14.6405 300.197C14.8092 300.386 15.0666 300.485 15.4129 300.493C15.4277 300.493 15.4427 300.493 15.4579 300.493H16.5495C16.5646 300.493 16.5796 300.493 16.5945 300.493C16.9381 300.485 17.1953 300.39 17.3659 300.208C17.3659 300.208 17.366 300.208 17.3659 300.208C17.5288 300.034 17.613 299.78 17.6183 299.447C17.6185 299.435 17.6185 299.424 17.6185 299.413V298.681C17.6185 298.233 17.4803 297.924 17.2037 297.755C17.1919 297.747 17.1798 297.74 17.1675 297.734C17.0053 297.645 16.7993 297.601 16.5495 297.601H15.4579C15.2074 297.601 15.0013 297.647 14.8398 297.737ZM16.5495 297.117C16.7937 297.117 16.9966 297.07 17.1582 296.976C17.1748 296.967 17.191 296.956 17.2068 296.946C17.2542 296.914 17.2977 296.877 17.3372 296.836C17.5248 296.648 17.6185 296.378 17.6185 296.026V295.35C17.6185 295.339 17.6185 295.328 17.6183 295.317C17.6131 294.99 17.5324 294.74 17.3762 294.567C17.373 294.563 17.3697 294.559 17.3664 294.556C17.1958 294.373 16.9385 294.278 16.5945 294.271C16.5796 294.27 16.5646 294.27 16.5495 294.27H15.4579C15.4427 294.27 15.4277 294.27 15.4129 294.271C15.063 294.278 14.8038 294.379 14.6353 294.572C14.6336 294.574 14.632 294.576 14.6303 294.578C14.482 294.751 14.4054 294.997 14.4004 295.317C14.4002 295.328 14.4001 295.339 14.4001 295.35V296.026C14.4001 296.476 14.535 296.787 14.8047 296.958C14.8165 296.966 14.8285 296.973 14.8408 296.98C15.0022 297.071 15.2079 297.117 15.4579 297.117H16.5495Z" fill="#FFFC54"/>
<path fill-rule="evenodd" clip-rule="evenodd" d="M17.4801 333.096H15.4207C14.9446 333.096 14.565 332.96 14.282 332.689C14.2794 332.686 14.2769 332.684 14.2743 332.681C14.27 332.677 14.2658 332.673 14.2616 332.669C13.9765 332.383 13.834 331.993 13.834 331.498V330.362C13.834 329.866 13.9765 329.476 14.2616 329.191C14.2639 329.189 14.2661 329.187 14.2684 329.185C14.271 329.182 14.2736 329.179 14.2762 329.177C14.5598 328.901 14.9413 328.764 15.4207 328.764H16.4673C16.9421 328.764 17.3208 328.899 17.6036 329.169C17.609 329.174 17.6143 329.179 17.6196 329.185C17.6218 329.187 17.6241 329.189 17.6264 329.191C17.9114 329.476 18.054 329.866 18.054 330.362V334.402C18.054 334.897 17.9114 335.287 17.6264 335.572C17.6222 335.576 17.6179 335.58 17.6137 335.584C17.6111 335.587 17.6085 335.589 17.6059 335.592C17.3229 335.864 16.9434 336 16.4673 336H14.3179C14.2279 336 14.1828 335.958 14.1828 335.876V335.606C14.1828 335.531 14.2279 335.493 14.3179 335.493H16.4223C16.4374 335.493 16.4524 335.493 16.4673 335.493C16.7903 335.485 17.0378 335.391 17.21 335.212C17.219 335.202 17.2278 335.192 17.2363 335.182C17.3952 334.993 17.4764 334.733 17.4799 334.402C17.48 334.394 17.4801 334.387 17.4801 334.379V333.096ZM17.21 329.563C17.0378 329.376 16.7903 329.279 16.4673 329.271C16.4524 329.27 16.4374 329.27 16.4223 329.27H15.4657C15.4506 329.27 15.4355 329.27 15.4207 329.271C15.0977 329.279 14.8501 329.376 14.678 329.563C14.6706 329.57 14.6634 329.578 14.6564 329.586C14.4943 329.769 14.4116 330.027 14.408 330.362C14.4079 330.369 14.4079 330.377 14.4079 330.384V331.476C14.4079 331.483 14.4079 331.491 14.408 331.498C14.4115 331.83 14.4927 332.09 14.6516 332.279C14.6602 332.289 14.669 332.299 14.678 332.308C14.8501 332.488 15.0977 332.581 15.4207 332.589C15.4355 332.59 15.4506 332.59 15.4657 332.59H17.4913V330.384C17.4913 330.377 17.4913 330.369 17.4912 330.362C17.4875 330.027 17.4011 329.768 17.2321 329.586C17.2249 329.578 17.2175 329.57 17.21 329.563Z" fill="#FFFC54"/>
<path fill-rule="evenodd" clip-rule="evenodd" d="M21.4897 364.182C21.2128 363.903 20.8332 363.764 20.3507 363.764H19.2254C18.746 363.764 18.3645 363.901 18.0809 364.177C18.0783 364.179 18.0757 364.182 18.0731 364.185C18.0708 364.187 18.0686 364.189 18.0663 364.191C17.7812 364.476 17.6387 364.866 17.6387 365.362V369.402C17.6387 369.897 17.7812 370.287 18.0663 370.572C18.0705 370.576 18.0747 370.58 18.079 370.584C18.0816 370.587 18.0841 370.589 18.0867 370.592C18.3697 370.864 18.7493 371 19.2254 371H20.3507C20.8299 371 21.2076 370.862 21.484 370.587C21.4865 370.584 21.4889 370.582 21.4914 370.579C21.4938 370.577 21.4962 370.574 21.4986 370.572C21.7836 370.287 21.9262 369.897 21.9262 369.402V365.362C21.9262 364.866 21.7836 364.476 21.4986 364.191C21.4981 364.191 21.4977 364.19 21.4972 364.19C21.4947 364.187 21.4922 364.185 21.4897 364.182ZM18.4827 364.563C18.6548 364.376 18.9024 364.279 19.2254 364.271C19.2402 364.27 19.2552 364.27 19.2704 364.27H20.3057C20.3209 364.27 20.3359 364.27 20.3507 364.271C20.6737 364.279 20.9213 364.376 21.0934 364.563C21.0973 364.567 21.101 364.571 21.1048 364.575C21.1064 364.577 21.1081 364.578 21.1097 364.58C21.2753 364.763 21.3598 365.024 21.3634 365.362C21.3635 365.369 21.3635 365.377 21.3635 365.384V369.379C21.3635 369.387 21.3635 369.394 21.3634 369.402C21.3599 369.736 21.2769 369.999 21.1146 370.188C21.1131 370.19 21.1115 370.192 21.1099 370.193C21.1045 370.2 21.099 370.206 21.0934 370.212C20.9213 370.391 20.6737 370.485 20.3507 370.493C20.3359 370.493 20.3209 370.493 20.3057 370.493H19.2704C19.2552 370.493 19.2402 370.493 19.2254 370.493C18.9024 370.485 18.6548 370.391 18.4827 370.212C18.4737 370.202 18.4649 370.192 18.4563 370.182C18.2974 369.993 18.2162 369.733 18.2127 369.402C18.2126 369.394 18.2126 369.387 18.2126 369.379V365.384C18.2126 365.377 18.2126 365.369 18.2127 365.362C18.2162 365.027 18.299 364.769 18.4611 364.586C18.4681 364.578 18.4753 364.57 18.4827 364.563Z" fill="#FFFC54"/>
<path fill-rule="evenodd" clip-rule="evenodd" d="M13.8636 364.641C13.7803 364.697 13.7355 364.769 13.7293 364.856C13.7288 364.863 13.7285 364.87 13.7285 364.878V365.125C13.7285 365.253 13.7923 365.275 13.9198 365.193L15.3715 364.371V370.865C15.3715 370.955 15.409 371 15.484 371H15.8104C15.8929 371 15.9342 370.955 15.9342 370.865V363.899C15.9342 363.809 15.8929 363.764 15.8104 363.764H15.5178C15.4353 363.764 15.3565 363.79 15.2815 363.842L13.8636 364.641Z" fill="#FFFC54"/>
<path fill-rule="evenodd" clip-rule="evenodd" d="M20.5413 400.641C20.458 400.697 20.4133 400.769 20.407 400.856C20.4065 400.863 20.4062 400.87 20.4062 400.878V401.125C20.4062 401.253 20.47 401.275 20.5976 401.193L22.0492 400.371V406.865C22.0492 406.955 22.0867 407 22.1618 407H22.4881C22.5706 407 22.6119 406.955 22.6119 406.865V399.899C22.6119 399.809 22.5706 399.764 22.4881 399.764H22.1955C22.113 399.764 22.0342 399.79 21.9592 399.842L20.5413 400.641Z" fill="#FFFC54"/>
<path fill-rule="evenodd" clip-rule="evenodd" d="M16.969 400.641C16.8857 400.697 16.841 400.769 16.8347 400.856C16.8342 400.863 16.834 400.87 16.834 400.878V401.125C16.834 401.253 16.8978 401.275 17.0253 401.193L18.477 400.371V406.865C18.477 406.955 18.5145 407 18.5895 407H18.9159C18.9984 407 19.0396 406.955 19.0396 406.865V399.899C19.0396 399.809 18.9984 399.764 18.9159 399.764H18.6233C18.5407 399.764 18.462 399.79 18.3869 399.842L16.969 400.641Z" fill="#FFFC54"/>
</svg>
