<svg width="244" height="47" viewBox="0 0 244 47" fill="none" xmlns="http://www.w3.org/2000/svg">
<path opacity="0.5" fill-rule="evenodd" clip-rule="evenodd" d="M85.4709 33H85V24H85.4709V33ZM85.9418 24H86.4126V33H85.9418V24ZM86.8835 33H88.2961V24H86.8835V33ZM89.7088 33H90.1797V24H89.7088V33ZM92.0632 33H90.6505V24H92.0632V33ZM94.4961 33V24H95.9087V33H94.4961ZM96.8504 33V24H96.3796V33H96.8504ZM98.734 24V33H97.3213V24H98.734ZM100.147 33H100.617V24H100.147V33ZM101.088 24V33H101.559V24H101.088ZM103.992 24H105.405V33H103.992V24ZM105.876 24V33H106.346V24H105.876ZM106.817 33H107.288V24H106.817V33ZM108.701 24H109.172V33H108.701V24ZM109.643 33H111.055V24H109.643V33ZM113.488 24V33H113.959V24H113.488ZM114.901 33H114.43V24H114.901V33ZM116.784 24V33H115.372V24H116.784ZM118.197 24V33H118.668V24H118.197ZM120.551 33H119.139V24H120.551V33ZM124.397 24V33H122.984V24H124.397ZM125.339 24V33H124.868V24H125.339ZM125.809 33V24H126.28V33H125.809ZM128.164 33V24H126.751V33H128.164ZM130.047 24H129.577V33H130.047V24ZM133.893 24H132.48V33H133.893V24ZM134.835 33V24H134.364V33H134.835ZM135.776 33H135.306V24H135.776V33ZM137.189 24H137.66V33H137.189V24ZM138.131 33H139.543V24H138.131V33ZM141.976 24V33H142.447V24H141.976ZM142.918 33V24H144.331V33H142.918ZM145.272 33H144.802V24H145.272V33ZM147.156 24H146.685V33H147.156V24ZM147.627 33V24H149.039V33H147.627ZM151.472 33H151.943V24H151.472V33ZM153.827 24H152.414V33H153.827V24ZM154.769 33H154.298V24H154.769V33ZM156.181 33V24H156.652V33H156.181ZM157.123 33H158.536V24H157.123V33ZM160.968 24V33H161.439V24H160.968ZM161.91 33V24H163.323V33H161.91ZM164.265 33V24H163.794V33H164.265ZM167.09 24V33H165.677V24H167.09ZM168.032 33H167.561V24H168.032V33ZM170.464 24V33H170.935V24H170.464ZM171.877 33V24H171.406V33H171.877ZM173.761 33H172.348V24H173.761V33ZM175.644 24V33H174.231V24H175.644ZM177.057 24V33H177.528V24H177.057ZM179.961 24H181.373V33H179.961V24ZM182.786 33V24H183.257V33H182.786ZM184.198 24H183.728V33H184.198V24ZM186.082 24V33H184.669V24H186.082ZM186.553 24V33H187.024V24H186.553ZM189.457 24H190.869V33H189.457V24ZM191.811 24V33H191.34V24H191.811ZM192.282 33H193.694V24H192.282V33ZM194.165 24V33H194.636V24H194.165ZM196.52 33H196.049V24H196.52V33ZM198.953 33H199.423V24H198.953V33ZM199.894 24V33H200.365V24H199.894ZM202.249 24V33H200.836V24H202.249ZM203.191 24V33H202.72V24H203.191ZM204.603 33H206.016V24H204.603V33ZM208.92 24H208.449V33H208.92V24ZM210.803 24H209.39V33H210.803V24ZM211.745 33H211.274V24H211.745V33ZM212.216 24V33H212.687V24H212.216ZM214.099 33V24H215.512V33H214.099ZM217.945 33H218.416V24H217.945V33ZM218.886 24V33H220.299V24H218.886ZM220.77 24H221.241V33H220.77V24ZM224.066 24V33H222.654V24H224.066ZM224.537 24H225.008V33H224.537V24ZM227.441 33H227.912V24H227.441V33ZM228.383 33H228.853V24H228.383V33ZM229.324 24H230.737V33H229.324V24ZM231.208 24H231.679V33H231.208V24ZM233.091 33H234.504V24H233.091V33ZM236.937 24H238.349V33H236.937V24ZM239.291 33V24H238.82V33H239.291ZM241.175 24V33H239.762V24H241.175ZM242.587 24V33H243.058V24H242.587ZM243.529 24V33H244V24H243.529Z" fill="#F75049"/>
<g opacity="0.5">
<mask id="mask0_890_21427" style="mask-type:luminance" maskUnits="userSpaceOnUse" x="209" y="0" width="17" height="16">
<path d="M225.238 0.201172H209.633V15.8029H225.238V0.201172Z" fill="white"/>
</mask>
<g mask="url(#mask0_890_21427)">
<path fill-rule="evenodd" clip-rule="evenodd" d="M210.934 8.00786C210.934 11.5806 213.867 14.4982 217.441 14.4982C221.014 14.4982 223.932 11.5806 223.932 8.00786C223.932 4.41947 221.014 1.50195 217.441 1.50195C213.867 1.50195 210.934 4.43507 210.934 8.00786ZM219.126 3.06212C219.516 3.84221 219.844 4.55988 220.031 5.40237H221.919C221.342 4.29465 220.296 3.51457 219.126 3.06212ZM216.2 5.40757H218.666C218.416 4.42466 217.948 3.58217 217.433 2.80209C216.918 3.58217 216.465 4.48707 216.2 5.40757ZM214.637 9.30799C214.637 8.85554 214.575 8.4499 214.575 7.99745C214.575 7.545 214.575 7.15496 214.637 6.70251H212.437C212.296 7.09255 212.234 7.545 212.234 7.99745C212.234 8.4499 212.296 8.91795 212.437 9.30799H214.637ZM215.742 12.9432C215.352 12.1631 215.025 11.4454 214.837 10.6029H212.949C213.542 11.7107 214.572 12.4907 215.742 12.9432ZM215.742 3.06212C214.572 3.51457 213.605 4.29465 212.949 5.40237H214.837C215.025 4.55988 215.352 3.84221 215.742 3.06212ZM218.666 10.6029H216.2C216.465 11.5702 216.918 12.4283 217.433 13.2084C217.964 12.4283 218.416 11.5078 218.666 10.6029ZM219.134 7.99745C219.134 7.545 219.056 7.15496 218.993 6.70251H215.935C215.873 7.15496 215.81 7.545 215.81 7.99745C215.81 8.4499 215.873 8.83994 215.935 9.30799H218.931C218.993 8.85554 219.134 8.4499 219.134 7.99745ZM221.919 10.6029H220.031C219.844 11.4454 219.516 12.2255 219.126 12.9432C220.296 12.4907 221.342 11.7107 221.919 10.6029ZM222.512 9.30799C222.637 8.91795 222.7 8.4499 222.7 7.99745C222.7 7.545 222.637 7.09255 222.512 6.70251H220.296C220.296 7.15496 220.359 7.545 220.359 7.99745C220.359 8.4499 220.359 8.83994 220.296 9.30799H222.512Z" fill="#F75049"/>
</g>
<path d="M197.383 2.49609L203.343 13.3112H191.423L197.383 2.49609Z" fill="#F75049"/>
<rect x="232.45" y="2.82227" width="11.1428" height="11.1428" fill="#F75049"/>
</g>
<path opacity="0.3" d="M244 44.7416H24.7329L5.53027 25.5391H0" stroke="#F75049" stroke-width="2.84483"/>
</svg>
