<svg width="90" height="51" viewBox="0 0 90 51" fill="none" xmlns="http://www.w3.org/2000/svg">
<path d="M89 6V45C89 48.0376 86.5376 50.5 83.5 50.5H8.09451C4.40201 50.5 1.75845 46.9336 2.83218 43.4007L14.6851 4.40067C15.3893 2.08377 17.5259 0.5 19.9475 0.5H33H37.5H44.25C45.1528 0.5 46.0417 0.722218 46.8382 1.14704L47.9413 1.73531C48.8826 2.23738 49.9331 2.5 51 2.5H58.9067C60.0378 2.5 61.1495 2.20479 62.1316 1.64356L62.8646 1.22468C63.6957 0.749792 64.6362 0.5 65.5934 0.5H76.75H83.5C86.5376 0.5 89 2.96243 89 6Z" fill="url(#paint0_radial_890_21382)" stroke="#FBF853"/>
<path d="M57.7032 16.7408C55.9186 15.9351 54.0048 15.3414 52.0039 15.0014C51.9674 14.9949 51.931 15.0113 51.9123 15.0441C51.6661 15.4748 51.3935 16.0367 51.2026 16.4784C49.0505 16.1614 46.9094 16.1614 44.8014 16.4784C44.6104 16.0269 44.3279 15.4748 44.0807 15.0441C44.0619 15.0124 44.0255 14.996 43.9891 15.0014C41.9892 15.3403 40.0755 15.934 38.2898 16.7408C38.2743 16.7473 38.261 16.7583 38.2523 16.7725C34.6223 22.1086 33.6279 27.3136 34.1157 32.4541C34.1179 32.4792 34.1323 32.5033 34.1521 32.5186C36.5471 34.2492 38.867 35.2998 41.1438 35.9962C41.1803 36.0071 41.2189 35.994 41.2421 35.9645C41.7806 35.2408 42.2607 34.4777 42.6724 33.6752C42.6967 33.6282 42.6735 33.5725 42.6238 33.5539C41.8623 33.2696 41.1372 32.9231 40.4397 32.5295C40.3845 32.4978 40.3801 32.4202 40.4309 32.383C40.5776 32.2748 40.7245 32.1621 40.8646 32.0484C40.89 32.0277 40.9253 32.0233 40.9551 32.0364C45.5375 34.095 50.4985 34.095 55.0268 32.0364C55.0566 32.0222 55.0919 32.0266 55.1184 32.0474C55.2586 32.1611 55.4054 32.2748 55.5533 32.383C55.604 32.4202 55.6007 32.4978 55.5455 32.5295C54.848 32.9307 54.1229 33.2696 53.3603 33.5528C53.3106 33.5714 53.2885 33.6282 53.3128 33.6752C53.7333 34.4766 54.2134 35.2396 54.742 35.9634C54.7641 35.994 54.8038 36.0071 54.8403 35.9962C57.1282 35.2998 59.4481 34.2492 61.843 32.5186C61.864 32.5033 61.8772 32.4803 61.8794 32.4552C62.4633 26.5122 60.9016 21.3499 57.7396 16.7736C57.7319 16.7583 57.7186 16.7473 57.7032 16.7408ZM43.3567 29.3241C41.9771 29.3241 40.8403 28.0778 40.8403 26.5472C40.8403 25.0167 41.955 23.7704 43.3567 23.7704C44.7694 23.7704 45.8951 25.0276 45.873 26.5472C45.873 28.0778 44.7583 29.3241 43.3567 29.3241ZM52.6605 29.3241C51.281 29.3241 50.1442 28.0778 50.1442 26.5472C50.1442 25.0167 51.2589 23.7704 52.6605 23.7704C54.0732 23.7704 55.199 25.0276 55.1769 26.5472C55.1769 28.0778 54.0732 29.3241 52.6605 29.3241Z" fill="black"/>
<defs>
<radialGradient id="paint0_radial_890_21382" cx="0" cy="0" r="1" gradientUnits="userSpaceOnUse" gradientTransform="translate(44.75 23) rotate(89.7846) scale(66.5005 106.282)">
<stop stop-color="#FFFC5E"/>
<stop offset="1" stop-color="#FFFC5E" stop-opacity="0.64"/>
</radialGradient>
</defs>
</svg>
