<svg width="287" height="65" viewBox="0 0 287 65" fill="none" xmlns="http://www.w3.org/2000/svg">
<path opacity="0.3" d="M0 62.7416H263.362L282.565 43.5391H287" stroke="#F75049" stroke-width="2.84483"/>
<g opacity="0.5">
<circle cx="9.71387" cy="9.87755" r="1.07213" transform="rotate(45 9.71387 9.87755)" fill="#F75049"/>
<path fill-rule="evenodd" clip-rule="evenodd" d="M6.87199 10.1924C6.83514 9.85874 6.8569 9.51984 6.93727 9.19239L0.499995 9.19239L0.499994 10.1924L6.87199 10.1924ZM9.19238 12.688C9.52259 12.7489 9.86146 12.7514 10.1924 12.6955V18.8848L9.19238 18.8848L9.19238 12.688ZM12.5552 10.1924L18.8848 10.1924L18.8848 9.19239L12.49 9.19239C12.5703 9.51984 12.5921 9.85874 12.5552 10.1924ZM10.1924 7.05779L10.1924 0.5H9.19238L9.19238 7.06529C9.52259 7.00437 9.86146 7.00187 10.1924 7.05779Z" fill="#F75049"/>
</g>
</svg>
