<svg width="90" height="51" viewBox="0 0 90 51" fill="none" xmlns="http://www.w3.org/2000/svg">
<path d="M0.5 45V6C0.5 2.96243 2.96243 0.5 6 0.5H81.4055C85.098 0.5 87.7416 4.0664 86.6678 7.59933L74.8149 46.5993C74.1107 48.9162 71.9741 50.5 69.5525 50.5H56.5H52H45.25C44.3472 50.5 43.4583 50.2778 42.6618 49.853L41.5587 49.2647C40.6174 48.7626 39.5669 48.5 38.5 48.5H30.5933C29.4622 48.5 28.3505 48.7952 27.3684 49.3564L26.6354 49.7753C25.8043 50.2502 24.8638 50.5 23.9066 50.5H12.75H6C2.96243 50.5 0.5 48.0376 0.5 45Z" fill="url(#paint0_radial_890_21378)" stroke="#FD0130"/>
<path d="M48.3263 15H51.6998L44.3297 23.4235L53 34.886H46.2112L40.894 27.934L34.8099 34.886H31.4344L39.3174 25.8761L31 15H37.9611L42.7674 21.3543L48.3263 15ZM47.1423 32.8668H49.0116L36.9454 16.9131H34.9395L47.1423 32.8668Z" fill="white"/>
<defs>
<radialGradient id="paint0_radial_890_21378" cx="0" cy="0" r="1" gradientUnits="userSpaceOnUse" gradientTransform="translate(44.75 28) rotate(90) scale(67.5 107.879)">
<stop stop-color="#FF002F"/>
<stop offset="1" stop-color="#FF002F" stop-opacity="0.37"/>
</radialGradient>
</defs>
</svg>
