<svg width="355" height="26" viewBox="0 0 355 26" fill="none" xmlns="http://www.w3.org/2000/svg">
<path d="M16.8194 6.04297L23.2716 12.8211L16.8194 19.5992" stroke="#FD0130" stroke-width="3" stroke-linecap="round" stroke-linejoin="round"/>
<path opacity="0.7" d="M9.65243 6.04297L16.1046 12.8211L9.65241 19.5992" stroke="#FD0130" stroke-width="3" stroke-linecap="round" stroke-linejoin="round"/>
<path opacity="0.5" d="M2.48544 6.04297L8.93761 12.8211L2.48542 19.5992" stroke="#FD0130" stroke-width="3" stroke-linecap="round" stroke-linejoin="round"/>
<path d="M338.682 6.04297L332.229 12.8211L338.682 19.5992" stroke="#FFFB00" stroke-width="3" stroke-linecap="round" stroke-linejoin="round"/>
<path opacity="0.7" d="M345.849 6.04297L339.396 12.8211L345.849 19.5992" stroke="#FFFB00" stroke-width="3" stroke-linecap="round" stroke-linejoin="round"/>
<path opacity="0.5" d="M353.016 6.04297L346.563 12.8211L353.016 19.5992" stroke="#FFFB00" stroke-width="3" stroke-linecap="round" stroke-linejoin="round"/>
<path d="M186.034 21H177.48C177.116 21 176.934 20.818 176.934 20.454V4.828C176.934 4.464 177.116 4.282 177.48 4.282H179.69C180.054 4.282 180.236 4.464 180.236 4.828V17.828C180.236 18.0187 180.34 18.114 180.548 18.114H186.034C186.381 18.114 186.554 18.3047 186.554 18.686V20.454C186.554 20.818 186.381 21 186.034 21ZM190.356 21H187.86C187.548 21 187.444 20.818 187.548 20.454L191.656 4.828C191.777 4.464 192.037 4.282 192.436 4.282H195.894C196.327 4.282 196.587 4.464 196.674 4.828L200.782 20.454C200.886 20.818 200.782 21 200.47 21H197.974C197.783 21 197.653 20.9653 197.584 20.896C197.514 20.8093 197.462 20.662 197.428 20.454L196.7 17.594H191.63L190.902 20.454C190.867 20.662 190.806 20.8093 190.72 20.896C190.65 20.9653 190.529 21 190.356 21ZM194.126 7.428L192.254 14.942H196.102L194.23 7.428H194.126ZM211.64 4.282H213.824C214.206 4.282 214.396 4.45533 214.396 4.802V16.762C214.396 18.114 214.015 19.1627 213.252 19.908C212.507 20.636 211.458 21 210.106 21H207.246C205.877 21 204.82 20.636 204.074 19.908C203.329 19.18 202.956 18.1313 202.956 16.762V4.828C202.956 4.464 203.138 4.282 203.502 4.282H205.712C206.076 4.282 206.258 4.464 206.258 4.828V16.606C206.258 17.1607 206.371 17.5593 206.596 17.802C206.839 18.0273 207.229 18.14 207.766 18.14H209.56C210.115 18.14 210.505 18.0273 210.73 17.802C210.973 17.5593 211.094 17.1607 211.094 16.606V4.828C211.094 4.464 211.276 4.282 211.64 4.282ZM220.339 21H218.181C217.817 21 217.635 20.818 217.635 20.454V4.828C217.635 4.464 217.817 4.282 218.181 4.282H220.131C220.495 4.282 220.738 4.40333 220.859 4.646L226.111 14.5H226.215V4.828C226.215 4.464 226.397 4.282 226.761 4.282H228.919C229.283 4.282 229.465 4.464 229.465 4.828V20.454C229.465 20.818 229.283 21 228.919 21H227.021C226.64 21 226.363 20.8267 226.189 20.48L220.989 10.808H220.885V20.454C220.885 20.818 220.703 21 220.339 21ZM239.708 21H236.874C235.505 21 234.448 20.636 233.702 19.908C232.957 19.18 232.584 18.1313 232.584 16.762V8.52C232.584 7.15067 232.957 6.102 233.702 5.374C234.448 4.646 235.505 4.282 236.874 4.282H239.708C241.06 4.282 242.109 4.65467 242.854 5.4C243.617 6.128 243.998 7.168 243.998 8.52V9.742C243.998 10.1233 243.808 10.314 243.426 10.314H241.242C240.878 10.314 240.696 10.1233 240.696 9.742V8.676C240.696 8.12133 240.575 7.73133 240.332 7.506C240.107 7.26333 239.717 7.142 239.162 7.142H237.394C236.857 7.142 236.467 7.26333 236.224 7.506C235.999 7.73133 235.886 8.12133 235.886 8.676V16.606C235.886 17.1607 235.999 17.5593 236.224 17.802C236.467 18.0273 236.857 18.14 237.394 18.14H239.162C239.717 18.14 240.107 18.0273 240.332 17.802C240.575 17.5593 240.696 17.1607 240.696 16.606V15.54C240.696 15.1587 240.878 14.968 241.242 14.968H243.426C243.808 14.968 243.998 15.1587 243.998 15.54V16.762C243.998 18.114 243.617 19.1627 242.854 19.908C242.109 20.636 241.06 21 239.708 21ZM249.591 21H247.381C247.017 21 246.835 20.818 246.835 20.454V4.828C246.835 4.464 247.017 4.282 247.381 4.282H249.591C249.955 4.282 250.137 4.464 250.137 4.828V10.938C250.137 11.1287 250.241 11.224 250.449 11.224H254.843C255.033 11.224 255.129 11.1287 255.129 10.938V4.828C255.129 4.464 255.311 4.282 255.675 4.282H257.885C258.249 4.282 258.431 4.464 258.431 4.828V20.454C258.431 20.818 258.249 21 257.885 21H255.675C255.311 21 255.129 20.818 255.129 20.454V14.37C255.129 14.1793 255.033 14.084 254.843 14.084H250.449C250.241 14.084 250.137 14.1793 250.137 14.37V20.454C250.137 20.818 249.955 21 249.591 21ZM264.571 21H262.361C261.997 21 261.815 20.818 261.815 20.454V4.828C261.815 4.464 261.997 4.282 262.361 4.282H268.705C270.057 4.282 271.106 4.65467 271.851 5.4C272.596 6.128 272.969 7.168 272.969 8.52V11.016C272.969 12.368 272.596 13.4167 271.851 14.162C271.106 14.89 270.057 15.254 268.705 15.254H265.429C265.221 15.254 265.117 15.3493 265.117 15.54V20.454C265.117 20.818 264.935 21 264.571 21ZM265.403 12.368H268.159C268.714 12.368 269.104 12.2553 269.329 12.03C269.554 11.7873 269.667 11.3973 269.667 10.86V8.676C269.667 8.12133 269.554 7.73133 269.329 7.506C269.104 7.26333 268.714 7.142 268.159 7.142H265.403C265.212 7.142 265.117 7.23733 265.117 7.428V12.082C265.117 12.2727 265.212 12.368 265.403 12.368ZM277.344 21H274.848C274.536 21 274.432 20.818 274.536 20.454L278.644 4.828C278.765 4.464 279.025 4.282 279.424 4.282H282.882C283.315 4.282 283.575 4.464 283.662 4.828L287.77 20.454C287.874 20.818 287.77 21 287.458 21H284.962C284.771 21 284.641 20.9653 284.572 20.896C284.503 20.8093 284.451 20.662 284.416 20.454L283.688 17.594H278.618L277.89 20.454C277.855 20.662 277.795 20.8093 277.708 20.896C277.639 20.9653 277.517 21 277.344 21ZM281.114 7.428L279.242 14.942H283.09L281.218 7.428H281.114ZM293.663 18.14H296.497C297.051 18.14 297.441 18.0273 297.667 17.802C297.909 17.5593 298.031 17.1607 298.031 16.606V8.676C298.031 8.12133 297.909 7.73133 297.667 7.506C297.441 7.26333 297.051 7.142 296.497 7.142H293.663C293.472 7.142 293.377 7.23733 293.377 7.428V17.854C293.377 18.0447 293.472 18.14 293.663 18.14ZM290.075 20.454V4.828C290.075 4.464 290.257 4.282 290.621 4.282H297.043C298.395 4.282 299.443 4.65467 300.189 5.4C300.951 6.128 301.333 7.168 301.333 8.52V16.762C301.333 18.114 300.951 19.1627 300.189 19.908C299.443 20.636 298.395 21 297.043 21H290.621C290.257 21 290.075 20.818 290.075 20.454Z" fill="white"/>
<path d="M166.347 7.72463L161.943 4.45117H145.647L144.587 7.72463H153.183L148.567 21.8556H152.123L156.723 7.72463H166.347Z" fill="white"/>
<path d="M105.536 4.45117L101.115 7.72463H117.786L118.863 4.45117H105.536Z" fill="white"/>
<path d="M101.115 7.72461L96.499 21.8556H100.055L103.986 9.81508L101.115 7.72461Z" fill="white"/>
<path d="M118.863 4.45117L114.051 19.1817L115.731 19.0521L108.831 13.8502H103.709L113.937 21.8556H116.726L121.734 6.54165L118.863 4.45117Z" fill="white"/>
<path d="M75.6034 12.9913L79.7956 10.9333L81.231 6.54165L78.3601 4.45117H59.1771L54.7402 7.72463H77.2835L76.0927 11.4194H67.0558L66.175 14.0933H75.2119L72.6835 21.8556L76.9083 19.7652L78.4253 15.1142L75.587 13.04L75.6034 12.9913Z" fill="white"/>
<path d="M61.118 18.5185L63.7279 10.4483L60.8244 8.29297L56.4854 21.8568H72.6832L73.7598 18.5185H61.118Z" fill="white"/>
<path d="M86.6796 6.25064L83.8087 4.16016L79.1598 18.3722L78.752 19.62L81.8023 21.8563H94.689L95.7816 18.518H82.6668L86.6796 6.25064Z" fill="white"/>
<path d="M125.714 11.5004L126.285 9.79888L123.43 7.72461L121.799 12.6834L124.638 14.7415V14.7577H137.361L136.138 18.5173H119.94L118.863 21.8556H135.045L139.286 19.7651L141.374 13.3802L138.747 11.468L125.714 11.5004Z" fill="white"/>
<path d="M127.835 4.45117L123.431 7.72463H142.826L143.902 4.45117H127.835Z" fill="white"/>
</svg>
