<svg width="236" height="52" viewBox="0 0 236 52" fill="none" xmlns="http://www.w3.org/2000/svg">
<path d="M12.4567 4.38516C13.2249 1.85763 15.5558 0.129883 18.1975 0.129883H35.75H31.25H42.5C43.4849 0.129883 44.4545 0.372302 45.3235 0.835746L46.4265 1.42402C47.2955 1.88746 48.2652 2.12988 49.25 2.12988H207.157C208.201 2.12988 209.227 1.85738 210.134 1.33932L210.867 0.920447C211.773 0.402383 212.799 0.129883 213.843 0.129883H225H229.579C233.63 0.129883 236.517 4.06101 235.304 7.92592L223.069 46.9259C222.284 49.4275 219.966 51.1299 217.344 51.1299H6.34451C2.31633 51.1299 -0.567558 47.2393 0.603791 43.3852L12.4567 4.38516Z" fill="url(#paint0_radial_143_3001)"/>
<defs>
<radialGradient id="paint0_radial_143_3001" cx="0" cy="0" r="1" gradientUnits="userSpaceOnUse" gradientTransform="translate(117.625 25.1299) rotate(-90) scale(66 158.389)">
<stop stop-color="#FF002F"/>
<stop offset="1" stop-color="#FF002F" stop-opacity="0.37"/>
</radialGradient>
</defs>
</svg>
